<?xml version="1.0" standalone="no"?>
<!DOCTYPE svg PUBLIC "-//W3C//DTD SVG 1.1//EN" "http://www.w3.org/Graphics/SVG/1.1/DTD/svg11.dtd" >
<svg xmlns="http://www.w3.org/2000/svg">
<metadata></metadata>
<defs>
<font id="thesans_swisscom_boldregular" horiz-adv-x="1126" >
<font-face units-per-em="2048" ascent="1516" descent="-532" />
<missing-glyph horiz-adv-x="446" />
<glyph unicode="&#xfb01;" horiz-adv-x="1218" d="M16 815v203h179v37q0 227 120.5 341.5t380.5 114.5q88 0 163 -10t153 -28l-45 -218q-57 18 -124 29.5t-126 11.5q-141 0 -201.5 -57t-60.5 -168v-53h622v-1018h-260v815h-362v-815h-260v815h-179z" />
<glyph unicode="&#xfb02;" horiz-adv-x="1218" d="M16 815v203h179v98q0 88 27.5 161t88 125t155.5 80.5t230 28.5q78 0 177.5 -9t203.5 -25v-1477h-260v1286q-74 12 -143 12q-111 0 -165 -46t-54 -148v-86h223v-203h-223v-815h-260v815h-179z" />
<glyph unicode="&#xfb03;" horiz-adv-x="1832" d="M16 815v203h179v49q0 96 26.5 175t85 134.5t148.5 86t219 30.5q86 0 168 -15.5t147 -39.5q57 35 139 55t193 20q88 0 164 -10t160 -26l-48 -220q-63 18 -130.5 29.5t-125.5 11.5q-141 0 -204.5 -58t-63.5 -169v-53h623v-1018h-262v815h-361v-815h-262v815h-356v-815h-260 v815h-179zM455 1018h356v37q0 49 8.5 98t28.5 92q-51 23 -96 29t-90 6q-111 0 -159 -51t-48 -148v-63z" />
<glyph unicode="&#xfb04;" horiz-adv-x="1832" d="M16 815v203h179v49q0 96 26.5 175t85 134.5t148.5 86t219 30.5q86 0 166 -14.5t145 -38.5q57 35 138 54t192 19q78 0 177 -9t204 -25v-1479h-262v1288q-70 12 -142 12q-111 0 -165 -47t-54 -149v-86h223v-203h-223v-815h-262v815h-356v-815h-260v815h-179zM455 1018h356 v98q0 76 27 135q-47 18 -91.5 23.5t-84.5 5.5q-111 0 -159 -51t-48 -148v-63z" />
<glyph horiz-adv-x="0" />
<glyph horiz-adv-x="0" />
<glyph unicode="&#xd;" horiz-adv-x="1024" />
<glyph unicode=" "  horiz-adv-x="446" />
<glyph unicode="&#x09;" horiz-adv-x="446" />
<glyph unicode="&#xa0;" horiz-adv-x="446" />
<glyph unicode="!" horiz-adv-x="657" d="M184 133q0 66 46 111t114 45q70 0 116 -45t46 -111t-46 -111t-116 -45q-68 0 -114 45.5t-46 110.5zM193 1450h307l-39 -1065h-225z" />
<glyph unicode="&#x22;" horiz-adv-x="829" d="M90 1438h262l-33 -520h-196zM477 1438h262l-34 -520h-195z" />
<glyph unicode="#" horiz-adv-x="1193" d="M57 365v184h181l32 293h-164v182h183l37 358h209l-39 -358h270l39 358h209l-39 -358h162v-182h-181l-30 -293h164v-184h-185l-37 -365h-209l39 365h-270l-39 -365h-209l39 365h-162zM446 549h271l31 293h-269z" />
<glyph unicode="$" horiz-adv-x="1011" d="M94 905q0 70 23.5 129.5t65.5 106.5t101.5 80.5t133.5 46.5v207h186v-193q53 -2 106.5 -7t102.5 -18l-16 -223q-61 16 -120 25.5t-108 9.5q-57 0 -95 -11t-62.5 -30.5t-35.5 -43t-11 -52.5q0 -53 40.5 -86t102 -58.5t133.5 -54t133.5 -72t102.5 -111t41 -171.5 q0 -70 -24 -132.5t-67 -113.5t-106.5 -88t-140.5 -53v-250h-189v235q-70 2 -129 8.5t-119 18.5l19 238q29 -10 62.5 -19.5t67.5 -13.5t66.5 -7t63.5 -3q47 0 88 8t69.5 27.5t45 48t16.5 69.5q0 55 -40 89t-101.5 60.5t-132 53.5t-131 69t-101.5 108.5t-41 172.5z" />
<glyph unicode="%" horiz-adv-x="1556" d="M78 1073q0 74 24.5 135.5t67.5 105.5t102.5 68.5t126.5 24.5q141 0 222 -77.5t81 -235.5q0 -76 -24.5 -138.5t-67.5 -107.5t-102 -69.5t-127 -24.5q-150 0 -226.5 86t-76.5 233zM180 72l1026 1353l164 -118l-1026 -1352zM279 1083q0 -92 29.5 -128.5t84.5 -36.5 q47 0 80 41.5t33 119.5q0 92 -28.5 128t-86.5 36q-47 0 -79.5 -42t-32.5 -118zM854 297q0 74 24.5 135.5t67.5 105.5t101.5 68.5t126.5 24.5q141 0 223 -78t82 -238q0 -76 -24.5 -138t-69 -106t-102.5 -69t-126 -25q-150 0 -226.5 85t-76.5 235zM1053 307q0 -92 29.5 -129 t86.5 -37q47 0 79 42t32 120q0 90 -28.5 126t-84.5 36q-49 0 -81.5 -41t-32.5 -117z" />
<glyph unicode="&#x26;" horiz-adv-x="1632" d="M96 383q0 135 72 234.5t188 191.5q-47 55 -79.5 102t-54 90t-31 85t-9.5 88q0 68 27 129t78 107t128 73.5t175 27.5q178 0 271 -82.5t93 -218.5q0 -109 -58 -202t-185 -193q74 -74 173 -162t197 -166v-2q61 94 94 212t29 241h260q4 -162 -44 -315.5t-142 -278.5 q68 -51 140.5 -103.5t127.5 -88.5l-172 -199q-35 25 -72.5 51.5t-74.5 53t-72 52t-61 48.5q-98 -78 -232.5 -129.5t-300.5 -51.5q-121 0 -208 33t-144 88.5t-85 129t-28 155.5zM369 416q0 -43 16 -82t47 -68.5t75 -47t99 -17.5q92 0 166 29.5t129 70.5q-53 43 -107.5 89 t-105.5 93t-97 90t-81 80q-76 -66 -108.5 -122t-32.5 -115zM440 1188q0 -43 26 -96.5t91 -128.5q66 55 102.5 109t36.5 120q0 51 -30.5 87t-96.5 36q-57 0 -93 -35t-36 -92z" />
<glyph unicode="'" horiz-adv-x="442" d="M90 1438h262l-33 -520h-196z" />
<glyph unicode="(" horiz-adv-x="626" d="M106 584q0 242 71 502t235 526l190 -88q-117 -207 -177 -442.5t-60 -487.5q0 -520 243 -942l-198 -92q-172 270 -238 524t-66 500z" />
<glyph unicode=")" horiz-adv-x="626" d="M27 1522l198 90q168 -270 233.5 -523t65.5 -499q0 -248 -67.5 -506t-237.5 -524l-190 88q117 207 178 442.5t61 489.5q0 518 -241 942z" />
<glyph unicode="*" horiz-adv-x="786" d="M63 1087l207 82l-207 82l93 162l174 -139l-33 221h186l-32 -221l174 139l92 -160l-207 -82l207 -81l-92 -162l-174 139l32 -221h-186l33 221l-176 -139z" />
<glyph unicode="+" d="M80 500v219h358v379h248v-379h361v-219h-361v-381h-248v381h-358z" />
<glyph unicode="," horiz-adv-x="528" d="M55 -258q106 113 119.5 184.5t-35.5 128.5q-29 35 -33 78t12.5 82t53.5 64.5t90 25.5q72 0 119 -56t47 -149q0 -92 -60.5 -210.5t-203.5 -243.5z" />
<glyph unicode="-" horiz-adv-x="684" d="M90 463v211h504v-211h-504z" />
<glyph unicode="." horiz-adv-x="528" d="M96 145q0 68 49.5 117t118.5 49q70 0 118 -49t48 -117q0 -70 -48 -119t-118 -49t-119 49.5t-49 118.5z" />
<glyph unicode="/" horiz-adv-x="948" d="M-23 -330l717 1880h258l-716 -1880h-259z" />
<glyph unicode="0" d="M72 672q0 174 36.5 302t103.5 213t159 126t202 41q113 0 202 -36t150.5 -116t94.5 -209t33 -317q0 -184 -41 -317.5t-111 -217.5t-160 -124t-190 -40q-113 0 -202 34t-150.5 114t-94 213t-32.5 334zM354 680q0 -139 11.5 -231.5t36 -146.5t64.5 -76.5t97 -22.5 q49 0 88 23.5t64.5 78.5t40 144.5t14.5 218.5q0 141 -12.5 231t-39 142.5t-65.5 72t-92 19.5q-45 0 -83 -21.5t-65.5 -73t-43 -139.5t-15.5 -219z" />
<glyph unicode="1" d="M129 1192l410 139h202v-1095h291v-236h-897v236h334v825l-297 -117z" />
<glyph unicode="2" d="M104 0v213l201 197q117 115 189.5 193.5t111.5 134t52.5 96t13.5 81.5q0 86 -56.5 142.5t-166.5 56.5q-84 0 -157 -28.5t-126 -65.5l-51 233q78 43 178 72t213 29q119 0 205 -33t141 -87t82 -126t27 -147q0 -66 -15.5 -127.5t-52.5 -126t-101.5 -139t-162.5 -167.5 l-162 -151v-2q72 2 169 3t210 1h164v-252h-906z" />
<glyph unicode="3" d="M135 10l25 226q115 -39 256 -39q152 0 222.5 56t70.5 142t-70 137.5t-221 51.5q-57 0 -106.5 -3t-102.5 -10v203h59q94 0 171 12.5t131.5 37t84 62.5t29.5 91q0 74 -55.5 117t-165.5 43q-86 0 -156.5 -19.5t-128.5 -48.5l-24 221q78 29 167 46.5t195 17.5 q223 0 332.5 -92.5t109.5 -235.5q0 -117 -60 -191.5t-171 -107.5l-2 -6q57 -6 106.5 -32.5t85 -66.5t55 -90.5t19.5 -107.5q0 -106 -43 -189t-120.5 -140.5t-187.5 -87.5t-241 -30q-76 0 -146.5 9.5t-117.5 23.5z" />
<glyph unicode="4" d="M37 506l506 825h356v-807h184v-235h-184v-289h-258v289h-580zM301 520q33 2 82 3t98 1h94h70v545h-2z" />
<glyph unicode="5" d="M162 6v236q59 -18 123.5 -28.5t148.5 -10.5q135 0 207 57t72 158q0 98 -81 149t-222 51q-68 0 -127.5 -4t-102.5 -12v729h764v-246h-516v-262q18 2 39 2h41q119 0 211 -28.5t154.5 -78.5t95 -121t32.5 -153q0 -106 -41.5 -192t-118.5 -147.5t-185.5 -94.5t-239.5 -33 q-72 0 -133.5 7.5t-120.5 21.5z" />
<glyph unicode="6" d="M82 559q0 199 50 348.5t141.5 247.5t220.5 147.5t286 49.5q39 0 80 -2t74 -7v-227q-78 14 -168 14q-172 0 -267.5 -86t-136.5 -243q-10 -29 -18 -82h2q47 61 122 95t171 34q100 0 178 -31t131 -84t80 -124.5t27 -151.5q0 -113 -35 -202t-98.5 -150.5t-153.5 -94.5 t-199 -33q-225 0 -356 144.5t-131 437.5zM358 430q0 -102 56.5 -171t169.5 -69q98 0 152.5 64t54.5 162q0 102 -54.5 159.5t-161.5 57.5q-51 0 -92 -17.5t-68.5 -47t-42 -65.5t-14.5 -73z" />
<glyph unicode="7" d="M102 1075v256h920v-225q-70 -133 -135.5 -277.5t-123.5 -288t-107.5 -280.5t-88.5 -260h-301q43 133 97.5 277.5t114 286t120.5 273.5t121 242q-23 0 -72 -1t-110.5 -2t-130.5 -1h-127h-177z" />
<glyph unicode="8" d="M82 326q0 59 19.5 108t53 90t79 76t94.5 66q-98 53 -155.5 126.5t-57.5 186.5q0 84 33.5 153.5t95 118.5t146.5 76t188 27q102 0 183 -24.5t136 -68.5t85 -105.5t30 -133.5q0 -55 -17.5 -100t-47 -84t-68.5 -72t-84 -61q49 -27 93 -59t78.5 -71.5t55 -90.5t20.5 -117 q0 -94 -38.5 -167t-106.5 -122t-158 -75t-190 -26q-109 0 -195 25t-146.5 70t-93 109.5t-32.5 144.5zM354 346q0 -70 54.5 -115t162.5 -45q86 0 143.5 42t57.5 114q0 43 -18.5 75t-49 58.5t-72.5 48t-89 41.5q-78 -45 -133.5 -94t-55.5 -125zM379 1001q0 -68 49 -110.5 t147 -89.5q72 41 122.5 86.5t50.5 111.5t-48.5 109t-140.5 43q-90 0 -135 -45t-45 -105z" />
<glyph unicode="9" d="M70 879q0 111 35.5 198.5t100 149t154 94.5t195.5 33q111 0 201 -35t152.5 -106.5t97 -181t34.5 -259.5q0 -203 -50 -351.5t-141 -246.5t-220 -146t-285 -48q-43 0 -92 3t-96 11v231q100 -25 204 -24q166 0 261.5 79.5t132.5 235.5q4 23 9 40t9 40h-2q-47 -53 -119.5 -84 t-165.5 -31q-100 0 -178 31t-130 84t-79.5 126t-27.5 157zM332 918q0 -104 54 -163t157 -59q104 0 159.5 60.5t55.5 144.5q0 104 -55.5 172t-165.5 68q-98 0 -151.5 -64.5t-53.5 -158.5z" />
<glyph unicode=":" horiz-adv-x="610" d="M162 145q0 68 49 117t119 49t118 -49t48 -117q0 -70 -48.5 -119t-117.5 -49q-70 0 -119 49.5t-49 118.5zM162 725q0 68 49 117t119 49t118 -49t48 -117q0 -70 -48.5 -119t-117.5 -49q-70 0 -119 49t-49 119z" />
<glyph unicode=";" horiz-adv-x="610" d="M123 -258q104 113 117.5 184.5t-33.5 128.5q-29 35 -33 78t12.5 82t52.5 64.5t89 25.5q74 0 121 -56t47 -149q0 -92 -60.5 -210.5t-204.5 -243.5zM162 725q0 68 49 117t119 49t118 -49t48 -117q0 -70 -48.5 -119t-117.5 -49q-70 0 -119 49t-49 119z" />
<glyph unicode="&#x3c;" d="M129 616l651 603l172 -172l-485 -429l487 -428l-172 -178z" />
<glyph unicode="=" d="M109 307v211h909v-211h-909zM109 698v211h909v-211h-909z" />
<glyph unicode="&#x3e;" d="M172 1040l172 179l653 -605l-651 -602l-172 172l485 428z" />
<glyph unicode="?" horiz-adv-x="923" d="M137 1231l33 237q168 -4 292 -39.5t206 -93t120.5 -131t38.5 -153.5q0 -86 -29.5 -146.5t-71.5 -106.5t-89 -86t-82 -86t-48 -102.5t11 -138.5h-254q-33 96 -24.5 167t39 124t74.5 95t86 80t72 79t30 92q0 92 -106.5 147.5t-297.5 61.5zM236 133q0 66 46 111t113 45 q68 0 114 -45t46 -111t-46 -111t-114 -45t-113.5 45.5t-45.5 110.5z" />
<glyph unicode="@" horiz-adv-x="1986" d="M164 573q0 203 70.5 375t193.5 296t288 193.5t355 69.5q182 0 319.5 -52t229.5 -142t138 -210t46 -257q0 -143 -37.5 -252t-103.5 -181.5t-156 -109.5t-196 -37q-115 0 -167 57.5t-48 139.5h-6q-16 -33 -44 -68t-66 -63.5t-83 -47t-96 -18.5q-98 0 -152.5 73t-54.5 220 q0 113 28.5 213t88 174t149.5 117t213 43q72 0 138.5 -12.5t111.5 -28.5l-72 -406q-18 -104 4.5 -146t85.5 -42q47 0 89.5 20.5t73 65.5t48 112.5t17.5 164.5q0 88 -28 172t-88 149.5t-157.5 104t-238.5 38.5q-137 0 -256 -50t-208 -142t-140.5 -221t-51.5 -285 q0 -258 141.5 -405.5t440.5 -147.5q180 0 358 59l39 -204q-102 -35 -217.5 -52.5t-212.5 -17.5q-193 0 -339 52.5t-245.5 149.5t-150.5 233t-51 306zM797 602q0 -133 65 -133q57 0 121 86t100 274l19 91q-41 12 -90 12q-53 0 -94 -33t-68 -82t-40 -106.5t-13 -108.5z" />
<glyph unicode="A" horiz-adv-x="1282" d="M2 0l477 1382h314l487 -1382h-295l-94 283h-524l-97 -283h-268zM430 494h393l-141 411q-16 51 -30.5 98.5t-24.5 92.5h-2q-12 -45 -25.5 -92.5t-28.5 -98.5z" />
<glyph unicode="B" horiz-adv-x="1187" d="M143 0v1380q88 4 210 7.5t249 3.5q223 0 343 -88.5t120 -253.5q0 -104 -54.5 -186.5t-154.5 -123.5v-4q61 -12 107.5 -42.5t78 -72.5t47 -92.5t15.5 -101.5q0 -76 -27.5 -152.5t-93 -138t-172 -100.5t-262.5 -39q-61 0 -168 2t-238 2zM410 221q25 -4 62.5 -6t84.5 -2 q131 0 196.5 56.5t65.5 150.5q0 102 -81 146t-212 44h-55t-61 -2v-387zM410 811q25 -2 49 -2h59q137 0 200.5 52.5t63.5 144.5q0 78 -50 124t-173 46q-43 0 -79 -1t-70 -4v-360z" />
<glyph unicode="C" horiz-adv-x="1159" d="M78 647q0 164 43 301t129 236.5t216 155t304 55.5q74 0 150.5 -10.5t144.5 -30.5l-37 -244q-129 47 -272 47q-96 0 -169 -35t-121 -96t-71.5 -147t-23.5 -187q0 -225 96 -346t307 -121q63 0 136 15.5t126 42.5l41 -236q-78 -29 -170 -46t-190 -17q-182 0 -304 55 t-197 147.5t-106.5 212t-31.5 248.5z" />
<glyph unicode="D" horiz-adv-x="1366" d="M143 2v1378q82 4 200 7.5t247 3.5q160 0 290 -37t221 -119t140 -210t49 -310q0 -178 -55 -313.5t-156.5 -226.5t-242 -137t-308.5 -46q-109 0 -203 3t-182 7zM410 229q29 -4 66.5 -7t78.5 -3q98 0 180 27.5t141.5 86t93.5 148.5t34 213q0 111 -24 199t-75 149.5t-133 93 t-201 31.5q-47 0 -88 -1t-73 -5v-932z" />
<glyph unicode="E" horiz-adv-x="1009" d="M143 0v1382h752v-223h-485v-340h460v-217h-460v-375h485v-227h-752z" />
<glyph unicode="F" horiz-adv-x="952" d="M143 0v1382h740v-225h-473v-356h446v-219h-446v-582h-267z" />
<glyph unicode="G" horiz-adv-x="1382" d="M74 649q0 172 51 311.5t150.5 237.5t244 151.5t322.5 53.5q109 0 208 -16.5t183 -43.5l-53 -241q-162 63 -355 63q-102 0 -189 -30.5t-147.5 -93t-93.5 -151.5t-33 -206q0 -221 115 -343t326 -122q96 0 176 25v481h266v-659q-104 -41 -226 -63.5t-247 -22.5 q-164 0 -296 46t-223 132t-135 215t-44 276z" />
<glyph unicode="H" horiz-adv-x="1406" d="M143 0v1382h267v-553h585v553h267v-1382h-267v600h-585v-600h-267z" />
<glyph unicode="I" horiz-adv-x="552" d="M143 0v1382h267v-1382h-267z" />
<glyph unicode="J" horiz-adv-x="686" d="M0 -2v229q25 -10 57.5 -15t69.5 -5q72 0 112 39t40 151v985h266v-995q0 -86 -18.5 -159.5t-62.5 -128t-116 -86t-176 -31.5q-55 0 -96 5t-76 11z" />
<glyph unicode="K" horiz-adv-x="1222" d="M143 0v1382h267v-626l446 626h328l-508 -667l528 -715h-350l-444 664v-664h-267z" />
<glyph unicode="L" horiz-adv-x="878" d="M143 0v1382h267v-1149h448v-233h-715z" />
<glyph unicode="M" horiz-adv-x="1804" d="M66 0l213 1382h311l233 -714q18 -61 38 -135t38 -156h4q18 80 35.5 146.5t40.5 140.5l235 718h312l215 -1382h-277l-100 668q-16 111 -25.5 192.5t-17.5 153.5h-4q-14 -66 -30.5 -138.5t-47.5 -177.5l-223 -698h-258l-213 649q-29 90 -51.5 184.5t-38.5 180.5h-4 q-6 -92 -16.5 -184.5t-20.5 -184.5l-80 -645h-268z" />
<glyph unicode="N" horiz-adv-x="1431" d="M143 0v1382h258h95l417 -743q37 -66 69 -132.5t65 -144.5q-4 51 -7.5 168t-4.5 189t-2 103.5t-1 129.5v430h256v-1382h-258h-94l-428 762q-47 90 -72.5 148.5t-50.5 121.5q2 -45 5 -107.5t5 -135t3 -178t1 -236.5v-375h-256z" />
<glyph unicode="O" horiz-adv-x="1439" d="M68 674q0 172 53 307t145 229.5t215 144.5t262 50q137 0 253 -42t200 -128t130 -216t46 -308q0 -172 -53 -307.5t-144.5 -230.5t-214 -145.5t-264.5 -50.5q-158 0 -276.5 48.5t-196.5 139.5t-116.5 220t-38.5 289zM352 702q0 -111 21.5 -199.5t66.5 -151t114 -97.5 t161 -35q68 0 134 26.5t119.5 84t86 146.5t32.5 214q0 231 -94 353t-274 122q-72 0 -138.5 -28.5t-116.5 -86t-81 -144.5t-31 -204z" />
<glyph unicode="P" horiz-adv-x="1087" d="M143 0v1382q86 4 177.5 6.5t193.5 2.5q256 0 391 -111.5t135 -316.5q0 -100 -36.5 -188.5t-107.5 -153t-171 -101.5t-225 -37h-43q-23 0 -47 4v-487h-267zM410 711q39 -6 77 -6q123 2 200 65t77 176q0 104 -62.5 166t-197.5 62h-49q-23 0 -45 -3v-460z" />
<glyph unicode="Q" horiz-adv-x="1439" d="M68 674q0 170 55 306t145 230.5t213 144.5t262 50q137 0 255 -42t201 -128t128 -216t45 -308q0 -135 -32.5 -245t-90.5 -190q-27 -41 -73 -80.5t-89 -62.5q43 0 80 -9t76 -19.5t85 -15.5q18 -2 38 -2q33 0 72 5v-227q-75 -10 -134 -10q-47 0 -84 6q-85 14 -154 40.5 t-138.5 51t-171.5 24.5h-60q-158 0 -276.5 48.5t-196.5 139.5t-116.5 220t-38.5 289zM352 702q0 -111 21.5 -199.5t66.5 -151t114 -97.5t161 -35q68 0 137.5 25.5t120.5 84t82.5 147.5t31.5 214q-6 231 -99 353t-269 122q-72 0 -138.5 -28.5t-116.5 -86t-81 -144.5t-31 -204 z" />
<glyph unicode="R" horiz-adv-x="1161" d="M143 0v1382q82 4 179.5 6.5t218.5 2.5q115 0 207 -21.5t157.5 -68t101 -120t35.5 -180.5q0 -78 -25.5 -142t-71.5 -114.5t-108.5 -83t-134.5 -45.5q29 -39 57.5 -76.5t53.5 -74.5l322 -465h-330l-373 571h-22v-571h-267zM410 768q14 -2 39.5 -3t56.5 -1q121 0 189.5 56.5 t68.5 154.5q0 199 -250 199q-29 0 -56.5 -1.5t-47.5 -5.5v-399z" />
<glyph unicode="S" horiz-adv-x="1030" d="M82 989q0 92 35 169t101.5 131t163.5 85t222 31q57 0 124 -7t126 -20l-25 -233q-57 18 -116.5 28.5t-120.5 10.5q-117 0 -172 -46t-55 -120q0 -61 44 -99t109.5 -68t142 -58.5t142 -74.5t109.5 -115.5t44 -178.5q0 -96 -38.5 -178t-108.5 -141.5t-169 -93.5t-218 -34 q-182 0 -320 37l29 256q68 -29 142.5 -44t158.5 -15q47 0 89 10t74 31.5t50.5 55.5t18.5 83q0 66 -43 105t-107.5 67.5t-140.5 56t-140.5 71.5t-107.5 113.5t-43 184.5z" />
<glyph unicode="T" horiz-adv-x="1044" d="M31 1155v227h983v-227h-359v-1155h-266v1155h-358z" />
<glyph unicode="U" horiz-adv-x="1394" d="M143 479v903h267v-886q0 -66 12 -120t45 -94t88 -61.5t141 -21.5q154 0 222.5 72.5t68.5 248.5v862h264v-845q0 -285 -149.5 -422.5t-423.5 -137.5q-164 0 -267.5 41t-163 111t-82 161t-22.5 189z" />
<glyph unicode="V" horiz-adv-x="1286" d="M6 1382h291l268 -809q20 -59 42 -129.5t38 -136.5h4q16 68 39 140.5t45 142.5l273 792h274l-485 -1382h-308z" />
<glyph unicode="W" horiz-adv-x="1947" d="M49 1382h285l188 -764q16 -68 28.5 -138t22.5 -142h2q10 70 22.5 138.5t31.5 133.5l211 772h282l213 -768q16 -57 30.5 -126.5t25.5 -141.5h2q10 72 22 137.5t29 126.5l188 772h266l-352 -1382h-327l-201 762q-18 66 -30.5 138.5t-22.5 146.5h-2q-14 -143 -52 -279 l-200 -768h-310z" />
<glyph unicode="X" horiz-adv-x="1286" d="M20 0l441 707l-414 675h309l281 -479l278 479h304l-408 -673l455 -709h-336l-297 508l-297 -508h-316z" />
<glyph unicode="Y" horiz-adv-x="1148" d="M6 1382h291l182 -397q29 -61 51.5 -118.5t42.5 -110.5h5q23 59 51 124.5t59 131.5l174 370h283l-440 -893v-489h-267v487z" />
<glyph unicode="Z" horiz-adv-x="1099" d="M92 0v205l498 811q23 35 44 66.5t46 64.5q-37 -2 -92.5 -3t-159.5 -1h-319v239h892v-213l-526 -831q-16 -25 -30.5 -48.5t-32.5 -47.5q27 4 98 4h201h299v-246h-918z" />
<glyph unicode="[" horiz-adv-x="671" d="M145 -420v2011h453v-207h-207v-1593h207v-211h-453z" />
<glyph unicode="\" horiz-adv-x="980" d="M14 1550h258l717 -1880h-258z" />
<glyph unicode="]" horiz-adv-x="671" d="M74 -209h205v1593h-205v207h450v-2011h-450v211z" />
<glyph unicode="^" d="M113 782l336 600h200l350 -598l-186 -94l-270 506l-256 -506z" />
<glyph unicode="_" d="M0 -295h1126v-209h-1126v209z" />
<glyph unicode="`" horiz-adv-x="673" d="M137 1368l121 176l348 -256l-98 -141z" />
<glyph unicode="a" horiz-adv-x="1073" d="M78 270q0 90 42 158t118.5 112t185 65.5t242.5 21.5v51q0 80 -44 121t-155 41q-70 0 -147.5 -20.5t-139.5 -51.5l-47 207q78 29 178.5 47t200.5 18q121 0 201 -23.5t128 -68.5t67.5 -108.5t19.5 -143.5v-434q0 -61 1 -121.5t9 -140.5h-252q0 45 2 88t8 84l-2 2 q-37 -86 -124 -140t-201 -54q-139 0 -215 82.5t-76 207.5zM328 299q0 -51 31.5 -85t89.5 -34q49 0 89 21.5t68.5 55.5t44 78t15.5 91v31q-100 0 -166 -12.5t-104 -34t-53 -50t-15 -61.5z" />
<glyph unicode="b" horiz-adv-x="1144" d="M141 29v1466h262v-438q0 -47 -4 -102.5t-12 -96.5h2q39 84 120 132t187 48q184 0 279.5 -125t95.5 -352q0 -129 -37 -236.5t-107.5 -184.5t-173 -118.5t-233.5 -41.5q-111 0 -201 12t-178 37zM403 207q55 -18 138 -19q55 0 102 18.5t81 60.5t53.5 108t19.5 160 q0 286 -173 286h-1q-51 0 -92.5 -27.5t-69 -72.5t-43 -104.5t-15.5 -122.5v-287z" />
<glyph unicode="c" horiz-adv-x="870" d="M70 475q0 119 31.5 221.5t95 178t161 118.5t230.5 43q59 0 116.5 -9t106.5 -26l-41 -225q-41 16 -90 27.5t-100 11.5q-117 0 -176.5 -86t-59.5 -227q0 -66 12.5 -120t41 -93t73.5 -60.5t111 -21.5q106 0 198 41l35 -219q-59 -23 -135 -35t-152 -12q-106 0 -191 28.5 t-144.5 88t-91 153.5t-31.5 223z" />
<glyph unicode="d" horiz-adv-x="1142" d="M72 455q0 129 36.5 235.5t105.5 183t169 119.5t227 43q33 0 64 -2t65 -6v467h260v-1495h-243q0 37 3 83t9 87h-4q-41 -86 -123 -139.5t-199 -53.5q-186 0 -278 129.5t-92 348.5zM346 483q0 -288 173 -288h1q51 0 92 27.5t69 73.5t43 106.5t15 125.5v285q-35 8 -68.5 12 t-68.5 4q-113 0 -184.5 -78.5t-71.5 -267.5z" />
<glyph unicode="e" horiz-adv-x="1052" d="M70 500q0 113 34.5 213t95 171.5t149.5 112.5t204 41q111 0 191.5 -33.5t135 -97t75 -146.5t20.5 -155q0 -47 -2 -76.5t-6 -66.5h-631v-18q0 -261 276 -261h4q150 0 295 62l29 -199q-84 -35 -179 -51t-190 -16q-242 0 -371.5 126.5t-129.5 393.5zM340 637h377h-2 q0 100 -45 154.5t-129 54.5q-82 0 -135.5 -55.5t-65.5 -153.5z" />
<glyph unicode="f" horiz-adv-x="724" d="M16 815v203h179v82q0 209 100 310t305 101q41 0 83 -3t83 -13l-18 -215q-31 10 -65 14t-62 4q-86 0 -126 -46t-40 -148v-86h237v-203h-237v-815h-260v815h-179z" />
<glyph unicode="g" horiz-adv-x="1116" d="M70 -211q0 80 47 147.5t110 102.5q-47 23 -73.5 63.5t-26.5 94.5q0 59 34 108t87 72q-72 39 -112 108.5t-40 169.5q0 76 29 146.5t85 123t140 84t195 31.5q49 0 87 -6t79 -16h346v-205h-139q51 -47 51 -129t-28 -149.5t-82 -115.5t-136 -75t-191 -27q-41 0 -79 9 q-25 -10 -37.5 -30t-12.5 -36q0 -35 34 -47t124 -16l158 -7q166 -6 256 -79t90 -220q0 -82 -40 -155.5t-112.5 -129t-176 -88t-230.5 -32.5q-205 0 -320.5 77t-115.5 226zM328 -162q0 -72 59 -111.5t158 -39.5q129 0 194.5 49t65.5 121q0 55 -37 91t-123 40l-176 6h-47 q-45 -33 -69.5 -73t-24.5 -83zM346 672q0 -82 48 -129t141 -47q86 0 135 46t49 128t-46 131t-138 49q-90 0 -139.5 -50t-49.5 -128z" />
<glyph unicode="h" horiz-adv-x="1169" d="M141 0v1495h262v-438q0 -47 -4 -103.5t-14 -103.5h4q47 90 134 139t200 49q86 0 144.5 -25.5t93 -69.5t50 -102.5t15.5 -125.5v-715h-260v651q0 90 -30.5 129t-94.5 39q-49 0 -92 -25.5t-76 -70.5t-51.5 -105.5t-18.5 -128.5v-489h-262z" />
<glyph unicode="i" horiz-adv-x="544" d="M111 1327q0 66 47 113t114 47q68 0 116 -46t48 -114q0 -66 -48 -112t-116 -46t-114.5 46.5t-46.5 111.5zM141 0v1018h262v-1018h-262z" />
<glyph unicode="j" horiz-adv-x="555" d="M-127 -487l16 223q29 -10 61 -17.5t60 -7.5q82 0 112 41t30 146v1120h260v-1094q0 -102 -20.5 -183t-66.5 -136.5t-122 -84t-187 -28.5q-35 0 -73.5 5t-69.5 16zM117 1327q0 66 48 113t116 47t115.5 -46t47.5 -114q0 -66 -48 -112t-115 -46q-68 0 -116 46.5t-48 111.5z " />
<glyph unicode="k" horiz-adv-x="1071" d="M141 0v1495h262v-901l297 424h320l-356 -465l383 -553h-328l-316 504v-504h-262z" />
<glyph unicode="l" horiz-adv-x="544" d="M141 0v1495h262v-1495h-262z" />
<glyph unicode="m" horiz-adv-x="1773" d="M141 0v1018h248q0 -35 -3 -87t-11 -95l4 -2q47 94 134 149t202 55q68 0 117 -17t81.5 -47t52 -66t29.5 -72q18 37 48 72.5t71 65.5t94.5 47t118.5 17q147 0 226 -82t79 -256v-700h-262v643q0 82 -24.5 129t-96.5 47q-43 0 -85 -23.5t-74.5 -67.5t-53 -105.5t-20.5 -135.5 v-487h-258v645q0 76 -22.5 125t-98.5 49q-45 0 -87 -24.5t-75 -69.5t-52.5 -105.5t-19.5 -132.5v-487h-262z" />
<glyph unicode="n" horiz-adv-x="1169" d="M141 0v1018h248q0 -35 -3 -88t-11 -94h2q47 90 134 146t212 56q86 0 144.5 -25.5t93 -69.5t50 -102.5t15.5 -125.5v-715h-260v651q0 78 -26.5 123t-98.5 45q-49 0 -93 -26.5t-76 -70.5t-50.5 -103.5t-18.5 -126.5v-492h-262z" />
<glyph unicode="o" horiz-adv-x="1132" d="M68 492q0 119 37.5 219t106.5 172.5t164 113.5t212 41q217 0 346 -124t129 -386q0 -121 -38 -221t-107.5 -173t-165 -113.5t-209.5 -40.5q-109 0 -197 28.5t-149.5 91t-95 159.5t-33.5 233zM338 518q0 -315 227 -315q98 0 163 77.5t65 233.5q0 147 -53.5 225t-170.5 78 q-43 0 -85 -17.5t-74.5 -54t-52 -93t-19.5 -134.5z" />
<glyph unicode="p" horiz-adv-x="1144" d="M141 -494v1512h244q0 -37 -2 -83t-8 -87h4q43 90 123 140t196 50q182 0 277.5 -124t95.5 -351q0 -133 -35 -239.5t-102.5 -182t-167.5 -115.5t-231 -40q-37 0 -68 2t-64 6v-488h-262zM403 207q61 -18 138 -19q55 0 102 18.5t81 60.5t53.5 108t19.5 160q0 288 -173 288h-1 q-51 0 -92.5 -27.5t-69 -73.5t-43 -106.5t-15.5 -126.5v-282z" />
<glyph unicode="q" horiz-adv-x="1144" d="M74 455q0 129 35.5 235.5t106.5 183t174.5 119.5t238.5 43q109 0 199 -8t173 -22v-1500h-260v461q0 41 2 94.5t13 102.5l-4 2q-41 -88 -120 -138.5t-181 -50.5q-184 0 -280.5 121t-96.5 357zM348 483q0 -288 171 -288h1q51 0 92 27.5t70 74.5t44 107.5t15 127.5v283 q-33 6 -65.5 10t-71.5 4q-113 0 -184.5 -78.5t-71.5 -267.5z" />
<glyph unicode="r" horiz-adv-x="727" d="M141 0v1018h248q0 -39 -4 -95.5t-14 -109.5h4q18 49 46 92t67.5 75t91.5 48q38 12 83 11q17 0 35 -1l-12 -256q-33 6 -62 6q-221 0 -221 -372v-416h-262z" />
<glyph unicode="s" horiz-adv-x="854" d="M84 715q0 68 25.5 127t79 103t134 69.5t191.5 25.5q45 0 94 -5t92 -15l-12 -205q-41 12 -89 19.5t-95 7.5q-78 0 -114 -29t-36 -76q0 -43 31 -67.5t78 -43t101 -38t101.5 -52t78 -84t30.5 -135.5q0 -76 -31.5 -138t-91 -106t-142.5 -68.5t-183 -24.5q-59 0 -119 6 t-109 20l19 219q47 -20 103 -30.5t114 -10.5q74 0 119 30t45 79q0 45 -31 70.5t-77 43t-99 36t-99.5 50t-77 84t-30.5 138.5z" />
<glyph unicode="t" horiz-adv-x="768" d="M12 815v203h176v313l261 70v-383h247v-203h-247v-446q0 -98 26.5 -133t93.5 -35q68 0 117 14l19 -207q-49 -12 -108.5 -20t-113.5 -8q-84 0 -141 16t-91 54t-48.5 98.5t-14.5 150.5v516h-176z" />
<glyph unicode="u" horiz-adv-x="1167" d="M141 303v715h260v-651q0 -78 27 -123t100 -45q49 0 93.5 26.5t75 70.5t49 103.5t18.5 126.5v492h262v-1018h-246q0 35 2 88t11 94h-2q-47 -90 -133.5 -146t-213.5 -56q-86 0 -144 25.5t-93 69.5t-50.5 102.5t-15.5 125.5z" />
<glyph unicode="v" horiz-adv-x="1036" d="M10 1018h283l164 -492q23 -72 38 -132t27 -122h4q12 61 26.5 122t35.5 130l160 494h276l-352 -1018h-312z" />
<glyph unicode="w" horiz-adv-x="1630" d="M18 1018h287l109 -385q20 -76 40.5 -153t39.5 -154h2q16 86 33.5 156.5t39.5 138.5l123 397h252l125 -385q29 -88 47.5 -160t34.5 -147h4q16 78 32.5 148.5t39.5 146.5l114 397h269l-320 -1018h-284l-148 453q-16 53 -29.5 107t-27.5 120h-2q-16 -72 -32.5 -132.5 t-37.5 -123.5l-129 -424h-270z" />
<glyph unicode="x" horiz-adv-x="1081" d="M23 0l350 514l-330 504h20h293l197 -336l199 336h268h20l-317 -502l336 -516h-21h-309l-197 342l-196 -342h-293h-20z" />
<glyph unicode="y" horiz-adv-x="1028" d="M-37 -496l31 226q29 -10 62.5 -15.5t66.5 -5.5t64.5 9.5t62.5 32t57.5 61t48.5 98.5l31 90l-377 1018h293l137 -389q23 -66 43.5 -138.5t36.5 -142.5h2q8 35 20.5 77t26 85t26.5 85t26 77l120 346h281l-404 -1075q-49 -133 -102 -220.5t-114.5 -138.5t-134 -72.5 t-161.5 -21.5q-33 0 -73.5 4t-69.5 10z" />
<glyph unicode="z" horiz-adv-x="921" d="M92 0v186l410 600q-29 -2 -86.5 -3t-130.5 -1h-181v236h713v-187l-401 -593q16 0 43.5 1t58.5 1h66h63h178v-240h-733z" />
<glyph unicode="{" horiz-adv-x="741" d="M55 543v196q51 2 90 13.5t65 36t38 65.5t12 107v178q0 223 85 337.5t288 114.5h43v-207q-49 0 -83 -10t-53.5 -36.5t-27.5 -73.5t-8 -121v-176q0 -164 -51.5 -236t-137.5 -88v-2q86 -14 137.5 -91t51.5 -241v-274q0 -74 8 -122t27.5 -74.5t53.5 -37t83 -10.5v-211h-43 q-201 0 -287 108.5t-86 348.5v276q0 127 -51 175.5t-154 54.5z" />
<glyph unicode="|" horiz-adv-x="589" d="M186 -494v2048h209v-2048h-209z" />
<glyph unicode="}" horiz-adv-x="737" d="M72 -209q49 0 82.5 10.5t54 37t29 74.5t8.5 122v274q0 164 51 241t137 91v2q-88 12 -138 85t-50 233v182q0 74 -8.5 121t-29 73.5t-54 36.5t-82.5 10v207h45q203 0 286.5 -114.5t83.5 -337.5v-172q0 -68 12.5 -110t38 -67.5t63.5 -37t91 -13.5v-196q-102 -6 -153.5 -54.5 t-51.5 -175.5v-276q0 -240 -86 -348.5t-284 -108.5h-45v211z" />
<glyph unicode="~" d="M86 881v37q0 147 83 237t226 90q88 0 138.5 -33.5t84 -73.5t62.5 -74t72 -34q49 0 71.5 42t24.5 124h192v-37q0 -147 -81.5 -237.5t-225.5 -90.5q-88 0 -138 33t-84 73t-62.5 73.5t-71.5 33.5q-51 0 -72.5 -41.5t-23.5 -121.5h-195z" />
<glyph unicode="&#xa1;" horiz-adv-x="657" d="M154 885q0 66 46 110.5t113 44.5q70 0 116 -44.5t46 -110.5t-46 -111t-116 -45q-68 0 -113.5 45t-45.5 111zM158 -432l39 1065h225l43 -1065h-307z" />
<glyph unicode="&#xa2;" horiz-adv-x="929" d="M82 551q0 96 24.5 180t73.5 150.5t118 110.5t159 61v190h196v-176q43 -4 89 -12t94 -23l-25 -221q-86 43 -197 43q-121 0 -191.5 -74.5t-70.5 -214.5q0 -59 14.5 -110.5t45 -87t80 -57t118.5 -21.5q59 0 110.5 13t98.5 38l19 -227q-39 -16 -86 -27.5t-99 -15.5v-209h-196 v209q-94 12 -164 51t-117 101.5t-70.5 145.5t-23.5 183z" />
<glyph unicode="&#xa3;" horiz-adv-x="974" d="M59 616v201h177q-8 47 -15.5 103.5t-7.5 103.5q0 190 109.5 286.5t308.5 96.5q55 0 117.5 -7t109.5 -24l-45 -215q-37 14 -81 22.5t-87 8.5q-78 0 -123 -41t-45 -127q0 -35 6 -90t15 -117h276v-201h-252q4 -31 4 -49v-51q0 -94 -32.5 -165.5t-104.5 -135.5q18 4 46 6 t57.5 3t60.5 2t55 1h316v-227h-838v182q96 68 138 138.5t42 171.5q0 20 -1 48.5t-7 75.5h-199z" />
<glyph unicode="&#xa4;" d="M88 242l139 174q-33 47 -51 108.5t-18 143.5q0 150 80 252l-148 188l199 141l145 -198q66 27 148 26q33 0 66.5 -5t64.5 -17l143 196l199 -145l-146 -182q29 -41 44.5 -99.5t15.5 -136.5q0 -72 -20.5 -134t-55.5 -110l162 -202l-201 -146l-158 211q-72 -33 -151 -33 q-33 0 -60.5 5.5t-52.5 13.5l-141 -195zM387 678q0 -92 41 -152.5t135 -60.5q68 0 122 52t54 167q0 96 -41 149.5t-137 53.5q-70 0 -122 -52.5t-52 -156.5z" />
<glyph unicode="&#xa5;" horiz-adv-x="1230" d="M45 1382h291l182 -376q31 -63 54.5 -121t41.5 -111h4q23 63 50.5 128t62.5 130l178 350h281l-381 -749h254v-166h-318v-119h318v-170h-318v-178h-264v178h-317v170h317v119h-317v166h256z" />
<glyph unicode="&#xa6;" horiz-adv-x="589" d="M186 281h209v-775h-209v775zM186 801v753h209v-753h-209z" />
<glyph unicode="&#xa7;" horiz-adv-x="1085" d="M123 666q0 92 42 167.5t114 129.5q-37 47 -56.5 97t-19.5 116q0 68 23.5 128t75.5 106t133 73.5t198 27.5q41 0 85 -3t83 -13l-15 -217q-70 20 -145 20q-84 0 -121 -29.5t-37 -84.5q0 -45 34 -87t84 -87t109.5 -95.5t109.5 -111t84 -134t34 -163.5t-43 -167t-115 -130 q35 -43 55.5 -95.5t20.5 -117.5q0 -63 -24.5 -123.5t-80 -109t-143.5 -77t-213 -28.5q-35 0 -82 5t-88 15l17 220q82 -25 157 -25q92 0 134 36t42 89q0 47 -33.5 89t-83.5 85t-108.5 92t-109 107.5t-84 130t-33.5 164.5zM360 700q0 -45 18.5 -85t53.5 -80.5t86 -88 t117 -104.5q35 25 50 59.5t15 69.5q0 49 -22.5 92t-60 85t-87 86t-104.5 97q-35 -27 -50.5 -61.5t-15.5 -69.5z" />
<glyph unicode="&#xa8;" horiz-adv-x="901" d="M193 1327q0 59 40.5 100t100.5 41q59 0 100 -41t41 -100t-41 -100t-100 -41t-100 41t-41 100zM606 1327q0 59 41 100t101 41q59 0 100 -41t41 -100t-41 -100t-100 -41t-100.5 41t-41.5 100z" />
<glyph unicode="&#xa9;" horiz-adv-x="1560" d="M78 682q0 145 55 272t150.5 222.5t222.5 150.5t272 55t272.5 -54t222.5 -149.5t150.5 -222.5t55.5 -272t-55.5 -272t-150.5 -222.5t-222 -150.5t-273 -55q-147 0 -275 54t-222.5 149.5t-148.5 222.5t-54 272zM274 684q0 -104 40 -196.5t107.5 -161t160 -108.5t196.5 -40 t195.5 40t160 107.5t107.5 160t39 196.5t-39 196.5t-107.5 161t-159.5 108.5t-196 40q-104 0 -196.5 -40t-160 -107.5t-107.5 -160t-40 -196.5zM444 676q0 74 20.5 141.5t64.5 118.5t113 82t163 31q51 0 92 -8.5t76 -22.5l-29 -174q-23 16 -57.5 25.5t-71.5 9.5 q-82 0 -117.5 -53.5t-35.5 -145.5q0 -178 143 -178q39 0 74.5 6t68.5 22l35 -168q-88 -41 -209 -40q-158 0 -244 96t-86 258z" />
<glyph unicode="&#xaa;" horiz-adv-x="825" d="M82 846q0 68 30.5 118t86 82.5t130 48t160.5 15.5v31q0 16 -4 33.5t-16 31t-35.5 22.5t-62.5 9q-61 0 -117.5 -15.5t-108.5 -39.5l-18 176q55 20 126 32.5t150 12.5q86 0 142.5 -19.5t90.5 -53.5t47 -77t13 -88v-325v-97q0 -41 2 -77h-198q0 23 2 49t6 51l-2 2 q-23 -51 -81 -86t-126 -35q-115 0 -166 56.5t-51 142.5zM102 360v203h637v-203h-637zM279 874q0 -29 20 -47t55 -18q33 0 58.5 15.5t43 38t25.5 48t8 45.5v21q-111 0 -160.5 -24.5t-49.5 -78.5z" />
<glyph unicode="&#xab;" horiz-adv-x="1093" d="M86 598l225 403l201 -92l-174 -309l178 -305l-211 -94zM530 598l246 393l197 -94l-189 -297l193 -293l-205 -96z" />
<glyph unicode="&#xac;" d="M80 500v219h921v-524h-231v305h-690z" />
<glyph unicode="&#xad;" horiz-adv-x="684" d="M90 463v211h504v-211h-504z" />
<glyph unicode="&#xae;" horiz-adv-x="1155" d="M98 1085q0 98 38 185.5t102.5 151t152.5 100.5t187 37q100 0 187 -36t151.5 -99.5t102.5 -151t38 -187.5q0 -98 -38 -184t-103.5 -149.5t-152.5 -100.5t-185 -37q-100 0 -188.5 37t-153 100.5t-101.5 149.5t-37 184zM256 1087q0 -66 25.5 -125t68.5 -103t101.5 -69.5 t126.5 -25.5q66 0 124 25.5t101 68.5t68.5 101t25.5 126q0 66 -25.5 125.5t-68.5 103.5t-101.5 69.5t-123.5 25.5q-68 0 -126.5 -25.5t-101.5 -68.5t-68.5 -101.5t-25.5 -126.5zM410 860v457h190q86 0 124 -35t38 -92q0 -53 -25.5 -85t-66.5 -44q18 -23 35 -55l67 -146h-147 l-78 174h-15v-174h-122zM532 1118h23q37 0 54.5 16.5t17.5 39.5q0 49 -62 49h-33v-105z" />
<glyph unicode="&#xaf;" horiz-adv-x="755" d="M129 1229v188h551v-188h-551z" />
<glyph unicode="&#xb0;" horiz-adv-x="794" d="M86 1231q0 68 26.5 122t70.5 91t99.5 56.5t112.5 19.5q80 0 137.5 -22.5t93.5 -61.5t53 -90.5t17 -108.5q0 -72 -26.5 -126t-70.5 -91t-101.5 -55.5t-116.5 -18.5q-137 0 -216 76t-79 209zM281 1233q0 -57 30.5 -89t79.5 -32q51 0 81 35t30 90q0 41 -25.5 80t-83.5 39 q-49 0 -80.5 -34t-31.5 -89z" />
<glyph unicode="&#xb1;" d="M80 709v217h358v372h250v-372h359v-217h-359v-375h-250v375h-358zM88 0v219h950v-219h-950z" />
<glyph unicode="&#xb2;" horiz-adv-x="733" d="M72 758v176l149 143q84 78 118 134.5t34 99.5q0 49 -24.5 75.5t-76.5 26.5q-43 0 -85 -11t-76 -32l-31 184q51 20 118.5 35t137.5 15q80 0 136 -18.5t92 -51.5t52.5 -78t16.5 -96q0 -78 -37 -157t-129 -163l-94 -90q61 4 130.5 4h155.5v-196h-587z" />
<glyph unicode="&#xb3;" horiz-adv-x="698" d="M57 764l27 164q33 -10 69.5 -16.5t75.5 -6.5q80 0 115 29t35 72q0 23 -14.5 43t-45 33.5t-80 18.5t-120.5 -3v155q66 0 111.5 8.5t72.5 22.5t39 34.5t12 45.5q0 35 -26.5 56.5t-75.5 21.5q-39 0 -79 -9.5t-81 -25.5l-22 156q53 18 116.5 29.5t122.5 11.5 q76 0 130.5 -15.5t90 -42t51 -65.5t15.5 -84q0 -70 -32 -115t-95 -72q76 -20 117 -72t41 -118q0 -61 -26 -112.5t-74 -88.5t-118.5 -57.5t-162.5 -20.5q-45 0 -95.5 6.5t-93.5 16.5z" />
<glyph unicode="&#xb4;" horiz-adv-x="671" d="M215 1288l346 256l121 -176l-371 -221z" />
<glyph unicode="&#xb6;" horiz-adv-x="1218" d="M113 930q0 102 35.5 186t99 143.5t152.5 91t198 31.5v-909q-127 0 -218 36t-150.5 98.5t-88 146.5t-28.5 176zM614 12h144v1370h356v-208h-133v-1371h-367v209z" />
<glyph unicode="&#xb7;" horiz-adv-x="550" d="M106 610q0 70 49.5 119t120.5 49q70 0 120 -49t50 -119q0 -72 -50 -121t-120 -49q-72 0 -121 49.5t-49 120.5z" />
<glyph unicode="&#xb8;" horiz-adv-x="802" d="M287 -479q74 88 84 162.5t-64 166.5l217 68q80 -111 62.5 -209t-103.5 -188h-196z" />
<glyph unicode="&#xb9;" horiz-adv-x="589" d="M23 1501l227 86h213v-829h-250v610l-152 -59z" />
<glyph unicode="&#xba;" horiz-adv-x="872" d="M78 1022q0 88 28.5 158.5t79 121t117 77t143.5 26.5q74 0 136.5 -19.5t108.5 -63.5t71.5 -115t25.5 -171q0 -88 -28.5 -159.5t-78.5 -121.5t-118.5 -78t-148.5 -28q-72 0 -132.5 19.5t-106.5 64.5t-71.5 116t-25.5 173zM109 360v203h651v-203h-651zM291 1028 q0 -39 7 -73.5t22.5 -62.5t42 -44.5t65.5 -16.5q59 0 103 45t44 156q0 82 -31.5 135.5t-109.5 53.5q-53 0 -98 -43t-45 -150z" />
<glyph unicode="&#xbb;" horiz-adv-x="1093" d="M117 895l205 96l241 -387l-248 -393l-196 94l190 297zM578 907l210 94l220 -397l-226 -403l-202 92l176 309z" />
<glyph unicode="&#xbc;" horiz-adv-x="1462" d="M68 1315l192 67h186v-663h-223v475l-121 -47zM109 72l1026 1353l163 -118l-1026 -1352zM764 246l240 418h311v-394h94v-159h-94v-111h-207v111h-334zM954 266q16 0 37 1t41.5 2t41 1h36.5v256h-2z" />
<glyph unicode="&#xbd;" horiz-adv-x="1488" d="M68 1315l192 67h186v-663h-223v475l-121 -47zM109 72l1026 1353l163 -118l-1026 -1352zM895 0v150l111 100q70 57 106.5 108.5t36.5 90.5t-23.5 59t-72.5 20q-33 0 -67 -10t-62 -24l-25 143q45 16 103.5 29.5t121.5 13.5q68 0 116 -15.5t78 -42t44 -63.5t14 -78 q0 -63 -38 -121.5t-109 -123.5l-74 -68q45 4 106.5 5t133.5 1v-174h-500z" />
<glyph unicode="&#xbe;" horiz-adv-x="1490" d="M80 719l20 143q31 -8 60.5 -13t64.5 -5q55 0 86 21.5t31 58.5q0 18 -11.5 33.5t-37 26.5t-68.5 12t-110 -7v125q119 0 170 22.5t51 67.5q0 29 -22.5 43.5t-65.5 14.5q-31 0 -69 -8.5t-70 -22.5l-23 137q49 16 106.5 25.5t116.5 9.5q68 0 114 -13.5t75.5 -37t43 -54 t13.5 -67.5q0 -57 -31.5 -95t-83.5 -61q53 -12 89 -54t36 -95q0 -49 -19.5 -91t-58 -71t-99 -45.5t-142.5 -16.5q-39 0 -85 5.5t-81 11.5zM139 72l1026 1353l164 -118l-1026 -1352zM791 246l239 418h311v-394h95v-159h-95v-111h-206v111h-334zM981 266q16 0 36.5 1l41 2 t41 1h37.5v256h-2z" />
<glyph unicode="&#xbf;" horiz-adv-x="923" d="M96 -33q0 86 30 146.5t72 106.5t89 86t80.5 86t47 102.5t-11.5 138.5h256q33 -96 25 -167t-39 -124t-75 -95t-86 -80t-71.5 -79t-29.5 -92q0 -92 106.5 -147.5t296.5 -61.5l-32 -238q-170 4 -293 40t-205 93.5t-121 131t-39 153.5zM369 885q0 66 46 110.5t113 44.5 q68 0 114 -44.5t46 -110.5t-46 -111t-114 -45t-113.5 45t-45.5 111z" />
<glyph unicode="&#xc0;" horiz-adv-x="1282" d="M2 0l477 1382h314l487 -1382h-295l-94 283h-524l-97 -283h-268zM320 1575l61 188l424 -153l-43 -144zM430 494h393l-141 411q-16 51 -30.5 98.5t-24.5 92.5h-2q-12 -45 -25.5 -92.5t-28.5 -98.5z" />
<glyph unicode="&#xc1;" horiz-adv-x="1282" d="M2 0l477 1382h314l487 -1382h-295l-94 283h-524l-97 -283h-268zM430 494h393l-141 411q-16 51 -30.5 98.5t-24.5 92.5h-2q-12 -45 -25.5 -92.5t-28.5 -98.5zM457 1610l424 153l59 -188l-440 -109z" />
<glyph unicode="&#xc2;" horiz-adv-x="1282" d="M2 0l477 1382h314l487 -1382h-295l-94 283h-524l-97 -283h-268zM297 1597l338 175l340 -168l-63 -140l-285 115l-272 -113zM430 494h393l-141 411q-16 51 -30.5 98.5t-24.5 92.5h-2q-12 -45 -25.5 -92.5t-28.5 -98.5z" />
<glyph unicode="&#xc3;" horiz-adv-x="1282" d="M2 0l477 1382h314l487 -1382h-295l-94 283h-524l-97 -283h-268zM256 1589q94 168 256 168q53 0 89 -15.5t64.5 -32.5t53 -32.5t55.5 -15.5q37 0 64.5 21.5t54.5 64.5l129 -88q-94 -168 -256 -168q-53 0 -89 15.5t-65 32.5t-53.5 32.5t-55.5 15.5q-70 0 -118 -88zM430 494 h393l-141 411q-16 51 -30.5 98.5t-24.5 92.5h-2q-12 -45 -25.5 -92.5t-28.5 -98.5z" />
<glyph unicode="&#xc4;" horiz-adv-x="1282" d="M2 0l477 1382h314l487 -1382h-295l-94 283h-524l-97 -283h-268zM276 1608q0 57 40 96t97 39t97.5 -39t40.5 -96t-40 -96t-98 -39q-57 0 -97 38.5t-40 96.5zM430 494h393l-141 411q-16 51 -30.5 98.5t-24.5 92.5h-2q-12 -45 -25.5 -92.5t-28.5 -98.5zM719 1608 q0 57 38.5 96t96.5 39q57 0 97 -39t40 -96t-40 -96t-97 -39t-96 38.5t-39 96.5z" />
<glyph unicode="&#xc5;" horiz-adv-x="1282" d="M2 0l477 1382h314l487 -1382h-295l-94 283h-524l-97 -283h-268zM403 1683q0 49 19.5 91t51.5 73t76 48.5t93 17.5t93 -16.5t77 -47t51 -72t18 -90.5t-19.5 -91t-52 -72.5t-76.5 -49t-93 -18.5t-92 16.5t-76 47t-51.5 72.5t-18.5 91zM430 494h393l-141 411 q-16 51 -30.5 98.5t-24.5 92.5h-2q-12 -45 -25.5 -92.5t-28.5 -98.5zM544 1685q0 -41 29 -69.5t70 -28.5t68.5 28.5t27.5 69.5t-27.5 70t-68.5 29t-70 -29t-29 -70z" />
<glyph unicode="&#xc6;" horiz-adv-x="1607" d="M-78 0l684 1382h873v-223h-478v-340h461v-217h-461v-375h492v-227h-748v305h-403l-147 -305h-273zM432 514h313v645h-4q-29 -72 -57.5 -138.5t-69.5 -150.5z" />
<glyph unicode="&#xc7;" horiz-adv-x="1159" d="M78 647q0 164 43 301t129 236.5t216 155t304 55.5q74 0 150.5 -10.5t144.5 -30.5l-37 -244q-129 47 -272 47q-96 0 -169 -35t-121 -96t-71.5 -147t-23.5 -187q0 -225 96 -346t307 -121q63 0 136 15.5t126 42.5l41 -236q-78 -29 -170 -46t-190 -17q-182 0 -304 55 t-197 147.5t-106.5 212t-31.5 248.5zM506 -479q74 88 84 162.5t-64 166.5l217 68q80 -111 62.5 -209t-103.5 -188h-196z" />
<glyph unicode="&#xc8;" horiz-adv-x="1009" d="M143 0v1382h752v-223h-485v-340h460v-217h-460v-375h485v-227h-752zM201 1575l61 188l424 -153l-43 -144z" />
<glyph unicode="&#xc9;" horiz-adv-x="1009" d="M143 0v1382h752v-223h-485v-340h460v-217h-460v-375h485v-227h-752zM338 1610l424 153l59 -188l-440 -109z" />
<glyph unicode="&#xca;" horiz-adv-x="1009" d="M143 0v1382h752v-223h-485v-340h460v-217h-460v-375h485v-227h-752zM178 1597l338 175l340 -168l-63 -140l-285 115l-272 -113z" />
<glyph unicode="&#xcb;" horiz-adv-x="1009" d="M143 0v1382h752v-223h-485v-340h460v-217h-460v-375h485v-227h-752zM155 1608q0 57 40 96t97 39t97.5 -39t40.5 -96t-40 -96t-98 -39q-57 0 -97 38.5t-40 96.5zM598 1608q0 57 38.5 96t96.5 39q57 0 97 -39t40 -96t-40 -96t-97 -39t-96 38.5t-39 96.5z" />
<glyph unicode="&#xcc;" horiz-adv-x="552" d="M-37 1575l61 188l424 -153l-43 -144zM143 0v1382h267v-1382h-267z" />
<glyph unicode="&#xcd;" horiz-adv-x="552" d="M113 1610l424 153l59 -188l-440 -109zM143 0v1382h267v-1382h-267z" />
<glyph unicode="&#xce;" horiz-adv-x="552" d="M-58 1597l338 175l340 -168l-63 -140l-285 115l-272 -113zM143 0v1382h267v-1382h-267z" />
<glyph unicode="&#xcf;" horiz-adv-x="552" d="M-80 1608q0 57 40 96t97 39t97.5 -39t40.5 -96t-40 -96t-98 -39q-57 0 -97 38.5t-40 96.5zM143 0v1382h267v-1382h-267zM363 1608q0 57 38.5 96t96.5 39q57 0 97 -39t40 -96t-40 -96t-97 -39t-96 38.5t-39 96.5z" />
<glyph unicode="&#xd0;" horiz-adv-x="1384" d="M8 602v201h154v577q86 4 203.5 7.5t246.5 3.5q160 0 289 -38t219 -119t139.5 -210t49.5 -311q0 -178 -55.5 -312.5t-156 -225.5t-240.5 -137t-310 -46q-106 0 -199.5 3t-185.5 7v600h-154zM426 227q12 -2 59 -5t88 -3q98 0 180.5 27.5t141.5 86t93 148.5t34 213 q0 111 -23.5 199t-75 148.5t-133 93t-200.5 32.5q-47 0 -89 -1t-75 -5v-358h250v-201h-250v-375z" />
<glyph unicode="&#xd1;" horiz-adv-x="1431" d="M143 0v1382h258h95l417 -743q37 -66 69 -132.5t65 -144.5q-4 51 -7.5 168t-4.5 189t-2 103.5t-1 129.5v430h256v-1382h-258h-94l-428 762q-47 90 -72.5 148.5t-50.5 121.5q2 -45 5 -107.5t5 -135t3 -178t1 -236.5v-375h-256zM336 1589q94 168 256 168q53 0 89 -15.5 t64.5 -32.5t53 -32.5t55.5 -15.5q37 0 64.5 21.5t54.5 64.5l129 -88q-94 -168 -256 -168q-53 0 -89 15.5t-65 32.5t-53.5 32.5t-55.5 15.5q-70 0 -118 -88z" />
<glyph unicode="&#xd2;" horiz-adv-x="1439" d="M68 674q0 172 53 307t145 229.5t215 144.5t262 50q137 0 253 -42t200 -128t130 -216t46 -308q0 -172 -53 -307.5t-144.5 -230.5t-214 -145.5t-264.5 -50.5q-158 0 -276.5 48.5t-196.5 139.5t-116.5 220t-38.5 289zM352 702q0 -111 21.5 -199.5t66.5 -151t114 -97.5 t161 -35q68 0 134 26.5t119.5 84t86 146.5t32.5 214q0 231 -94 353t-274 122q-72 0 -138.5 -28.5t-116.5 -86t-81 -144.5t-31 -204zM401 1575l61 188l424 -153l-43 -144z" />
<glyph unicode="&#xd3;" horiz-adv-x="1439" d="M68 674q0 172 53 307t145 229.5t215 144.5t262 50q137 0 253 -42t200 -128t130 -216t46 -308q0 -172 -53 -307.5t-144.5 -230.5t-214 -145.5t-264.5 -50.5q-158 0 -276.5 48.5t-196.5 139.5t-116.5 220t-38.5 289zM352 702q0 -111 21.5 -199.5t66.5 -151t114 -97.5 t161 -35q68 0 134 26.5t119.5 84t86 146.5t32.5 214q0 231 -94 353t-274 122q-72 0 -138.5 -28.5t-116.5 -86t-81 -144.5t-31 -204zM574 1610l424 153l59 -188l-440 -109z" />
<glyph unicode="&#xd4;" horiz-adv-x="1439" d="M68 674q0 172 53 307t145 229.5t215 144.5t262 50q137 0 253 -42t200 -128t130 -216t46 -308q0 -172 -53 -307.5t-144.5 -230.5t-214 -145.5t-264.5 -50.5q-158 0 -276.5 48.5t-196.5 139.5t-116.5 220t-38.5 289zM352 702q0 -111 21.5 -199.5t66.5 -151t114 -97.5 t161 -35q68 0 134 26.5t119.5 84t86 146.5t32.5 214q0 231 -94 353t-274 122q-72 0 -138.5 -28.5t-116.5 -86t-81 -144.5t-31 -204zM397 1597l338 175l340 -168l-63 -140l-285 115l-272 -113z" />
<glyph unicode="&#xd5;" horiz-adv-x="1439" d="M68 674q0 172 53 307t145 229.5t215 144.5t262 50q137 0 253 -42t200 -128t130 -216t46 -308q0 -172 -53 -307.5t-144.5 -230.5t-214 -145.5t-264.5 -50.5q-158 0 -276.5 48.5t-196.5 139.5t-116.5 220t-38.5 289zM340 1589q94 168 256 168q53 0 89 -15.5t64.5 -32.5 t53 -32.5t55.5 -15.5q37 0 64.5 21.5t54.5 64.5l129 -88q-94 -168 -256 -168q-53 0 -89 15.5t-65 32.5t-53.5 32.5t-55.5 15.5q-70 0 -118 -88zM352 702q0 -111 21.5 -199.5t66.5 -151t114 -97.5t161 -35q68 0 134 26.5t119.5 84t86 146.5t32.5 214q0 231 -94 353t-274 122 q-72 0 -138.5 -28.5t-116.5 -86t-81 -144.5t-31 -204z" />
<glyph unicode="&#xd6;" horiz-adv-x="1439" d="M68 674q0 172 53 307t145 229.5t215 144.5t262 50q137 0 253 -42t200 -128t130 -216t46 -308q0 -172 -53 -307.5t-144.5 -230.5t-214 -145.5t-264.5 -50.5q-158 0 -276.5 48.5t-196.5 139.5t-116.5 220t-38.5 289zM352 702q0 -111 21.5 -199.5t66.5 -151t114 -97.5 t161 -35q68 0 134 26.5t119.5 84t86 146.5t32.5 214q0 231 -94 353t-274 122q-72 0 -138.5 -28.5t-116.5 -86t-81 -144.5t-31 -204zM371 1608q0 57 40 96t97 39t97.5 -39t40.5 -96t-40 -96t-98 -39q-57 0 -97 38.5t-40 96.5zM814 1608q0 57 38.5 96t96.5 39q57 0 97 -39 t40 -96t-40 -96t-97 -39t-96 38.5t-39 96.5z" />
<glyph unicode="&#xd7;" d="M96 285l316 315l-316 315l160 160l315 -315l316 315l143 -143l-315 -316l315 -315l-160 -160l-315 316l-315 -316z" />
<glyph unicode="&#xd8;" horiz-adv-x="1439" d="M68 676q0 170 53 305t145 229.5t215 144.5t262 50q86 0 168 -16l90 204l189 -82l-88 -198q129 -78 201.5 -227.5t72.5 -378.5q0 -172 -52 -307.5t-144.5 -228.5t-216 -143.5t-267.5 -50.5q-98 0 -182 19l-92 -207l-184 84l90 205q-135 86 -197.5 239.5t-62.5 358.5z M346 700q0 -113 25.5 -203.5t87.5 -146.5l346 813q-20 4 -40 7.5t-44 3.5q-74 0 -141.5 -29t-119.5 -87.5t-83 -147.5t-31 -210zM623 221q23 -6 45 -8t45 -2q74 0 144.5 26.5t123.5 85t86 148.5t33 217q0 123 -32 215t-95 146z" />
<glyph unicode="&#xd9;" horiz-adv-x="1394" d="M143 479v903h267v-886q0 -66 12 -120t45 -94t88 -61.5t141 -21.5q154 0 222.5 72.5t68.5 248.5v862h264v-845q0 -285 -149.5 -422.5t-423.5 -137.5q-164 0 -267.5 41t-163 111t-82 161t-22.5 189zM336 1575l61 188l424 -153l-43 -144z" />
<glyph unicode="&#xda;" horiz-adv-x="1394" d="M143 479v903h267v-886q0 -66 12 -120t45 -94t88 -61.5t141 -21.5q154 0 222.5 72.5t68.5 248.5v862h264v-845q0 -285 -149.5 -422.5t-423.5 -137.5q-164 0 -267.5 41t-163 111t-82 161t-22.5 189zM610 1610l424 153l59 -188l-440 -109z" />
<glyph unicode="&#xdb;" horiz-adv-x="1394" d="M143 479v903h267v-886q0 -66 12 -120t45 -94t88 -61.5t141 -21.5q154 0 222.5 72.5t68.5 248.5v862h264v-845q0 -285 -149.5 -422.5t-423.5 -137.5q-164 0 -267.5 41t-163 111t-82 161t-22.5 189zM362 1597l338 175l340 -168l-63 -140l-285 115l-272 -113z" />
<glyph unicode="&#xdc;" horiz-adv-x="1394" d="M143 479v903h267v-886q0 -66 12 -120t45 -94t88 -61.5t141 -21.5q154 0 222.5 72.5t68.5 248.5v862h264v-845q0 -285 -149.5 -422.5t-423.5 -137.5q-164 0 -267.5 41t-163 111t-82 161t-22.5 189zM338 1608q0 57 40 96t97 39t97.5 -39t40.5 -96t-40 -96t-98 -39 q-57 0 -97 38.5t-40 96.5zM781 1608q0 57 38.5 96t96.5 39q57 0 97 -39t40 -96t-40 -96t-97 -39t-96 38.5t-39 96.5z" />
<glyph unicode="&#xdd;" horiz-adv-x="1148" d="M6 1382h291l182 -397q29 -61 51.5 -118.5t42.5 -110.5h5q23 59 51 124.5t59 131.5l174 370h283l-440 -893v-489h-267v487zM473 1610l424 153l59 -188l-440 -109z" />
<glyph unicode="&#xde;" horiz-adv-x="1114" d="M143 0v1382h267v-192q35 2 69.5 3t79.5 1q244 0 383 -111.5t139 -334.5q0 -106 -40 -196.5t-113.5 -157t-179 -103.5t-236.5 -37h-46t-56 4v-258h-267zM410 479q27 -4 56.5 -6t61.5 -2q123 0 201 65.5t78 194.5q0 106 -66.5 176t-220.5 70q-29 0 -55.5 -2t-54.5 -6v-490z " />
<glyph unicode="&#xdf;" horiz-adv-x="1243" d="M141 0v1012q0 135 39 230t106.5 154.5t156.5 86t190 26.5q94 0 171 -20.5t131 -60t84 -96t30 -126.5q0 -98 -37 -152.5t-82 -91t-82 -71.5t-37 -94q0 -43 27.5 -74t68.5 -57.5t88 -54t88 -66.5t69 -92t28 -131t-31 -141.5t-87 -108.5t-134 -70t-172 -25q-137 0 -217 29 l14 215q41 -18 90 -29.5t96 -11.5q92 0 131 35t39 80t-26.5 74.5t-67.5 55.5t-88 53.5t-88 64.5t-67.5 90t-26.5 133q0 90 35.5 142.5t80 93t80 80.5t35.5 106q0 59 -41 89t-112 30q-104 0 -162 -68t-58 -215v-1024h-262z" />
<glyph unicode="&#xe0;" horiz-adv-x="1073" d="M78 270q0 90 42 158t118.5 112t185 65.5t242.5 21.5v51q0 80 -44 121t-155 41q-70 0 -147.5 -20.5t-139.5 -51.5l-47 207q78 29 178.5 47t200.5 18q121 0 201 -23.5t128 -68.5t67.5 -108.5t19.5 -143.5v-434q0 -61 1 -121.5t9 -140.5h-252q0 45 2 88t8 84l-2 2 q-37 -86 -124 -140t-201 -54q-139 0 -215 82.5t-76 207.5zM231 1368l121 176l348 -256l-98 -141zM328 299q0 -51 31.5 -85t89.5 -34q49 0 89 21.5t68.5 55.5t44 78t15.5 91v31q-100 0 -166 -12.5t-104 -34t-53 -50t-15 -61.5z" />
<glyph unicode="&#xe1;" horiz-adv-x="1073" d="M78 270q0 90 42 158t118.5 112t185 65.5t242.5 21.5v51q0 80 -44 121t-155 41q-70 0 -147.5 -20.5t-139.5 -51.5l-47 207q78 29 178.5 47t200.5 18q121 0 201 -23.5t128 -68.5t67.5 -108.5t19.5 -143.5v-434q0 -61 1 -121.5t9 -140.5h-252q0 45 2 88t8 84l-2 2 q-37 -86 -124 -140t-201 -54q-139 0 -215 82.5t-76 207.5zM328 299q0 -51 31.5 -85t89.5 -34q49 0 89 21.5t68.5 55.5t44 78t15.5 91v31q-100 0 -166 -12.5t-104 -34t-53 -50t-15 -61.5zM389 1288l346 256l121 -176l-371 -221z" />
<glyph unicode="&#xe2;" horiz-adv-x="1073" d="M78 270q0 90 42 158t118.5 112t185 65.5t242.5 21.5v51q0 80 -44 121t-155 41q-70 0 -147.5 -20.5t-139.5 -51.5l-47 207q78 29 178.5 47t200.5 18q121 0 201 -23.5t128 -68.5t67.5 -108.5t19.5 -143.5v-434q0 -61 1 -121.5t9 -140.5h-252q0 45 2 88t8 84l-2 2 q-37 -86 -124 -140t-201 -54q-139 0 -215 82.5t-76 207.5zM230 1266l313 278l314 -276l-103 -121l-213 166l-211 -166zM328 299q0 -51 31.5 -85t89.5 -34q49 0 89 21.5t68.5 55.5t44 78t15.5 91v31q-100 0 -166 -12.5t-104 -34t-53 -50t-15 -61.5z" />
<glyph unicode="&#xe3;" horiz-adv-x="1073" d="M78 270q0 90 42 158t118.5 112t185 65.5t242.5 21.5v51q0 80 -44 121t-155 41q-70 0 -147.5 -20.5t-139.5 -51.5l-47 207q78 29 178.5 47t200.5 18q121 0 201 -23.5t128 -68.5t67.5 -108.5t19.5 -143.5v-434q0 -61 1 -121.5t9 -140.5h-252q0 45 2 88t8 84l-2 2 q-37 -86 -124 -140t-201 -54q-139 0 -215 82.5t-76 207.5zM170 1290q90 182 249 183q51 0 85 -17.5t61.5 -36t51.5 -35t52 -16.5q66 0 115 92l125 -96q-92 -182 -250 -182q-51 0 -86 16t-61.5 35.5t-51 36t-53.5 16.5q-63 0 -113 -92zM328 299q0 -51 31.5 -85t89.5 -34 q49 0 89 21.5t68.5 55.5t44 78t15.5 91v31q-100 0 -166 -12.5t-104 -34t-53 -50t-15 -61.5z" />
<glyph unicode="&#xe4;" horiz-adv-x="1073" d="M78 270q0 90 42 158t118.5 112t185 65.5t242.5 21.5v51q0 80 -44 121t-155 41q-70 0 -147.5 -20.5t-139.5 -51.5l-47 207q78 29 178.5 47t200.5 18q121 0 201 -23.5t128 -68.5t67.5 -108.5t19.5 -143.5v-434q0 -61 1 -121.5t9 -140.5h-252q0 45 2 88t8 84l-2 2 q-37 -86 -124 -140t-201 -54q-139 0 -215 82.5t-76 207.5zM193 1327q0 59 40.5 100t100.5 41q59 0 100 -41t41 -100t-41 -100t-100 -41t-100 41t-41 100zM328 299q0 -51 31.5 -85t89.5 -34q49 0 89 21.5t68.5 55.5t44 78t15.5 91v31q-100 0 -166 -12.5t-104 -34t-53 -50 t-15 -61.5zM606 1327q0 59 41 100t101 41q59 0 100 -41t41 -100t-41 -100t-100 -41t-100.5 41t-41.5 100z" />
<glyph unicode="&#xe5;" horiz-adv-x="1073" d="M78 270q0 90 42 158t118.5 112t185 65.5t242.5 21.5v51q0 80 -44 121t-155 41q-70 0 -147.5 -20.5t-139.5 -51.5l-47 207q78 29 178.5 47t200.5 18q121 0 201 -23.5t128 -68.5t67.5 -108.5t19.5 -143.5v-434q0 -61 1 -121.5t9 -140.5h-252q0 45 2 88t8 84l-2 2 q-37 -86 -124 -140t-201 -54q-139 0 -215 82.5t-76 207.5zM285 1366q0 53 21.5 99t56 79t83 52.5t101.5 19.5q55 0 102 -18.5t82 -51.5t55.5 -79t20.5 -99t-20.5 -98.5t-56.5 -79t-83 -53t-102 -19.5q-53 0 -98.5 17.5t-82 49t-58 78.5t-21.5 103zM328 299q0 -51 31.5 -85 t89.5 -34q49 0 89 21.5t68.5 55.5t44 78t15.5 91v31q-100 0 -166 -12.5t-104 -34t-53 -50t-15 -61.5zM438 1366q0 -45 32 -77t77 -32q43 0 74.5 32t31.5 77t-30.5 76.5t-75.5 31.5t-77 -32.5t-32 -75.5z" />
<glyph unicode="&#xe6;" horiz-adv-x="1638" d="M78 270q0 90 42 158t118.5 112t185 65.5t242.5 21.5v51q0 80 -44 121t-155 41q-70 0 -147.5 -20.5t-139.5 -51.5l-47 207q78 29 178.5 47t200.5 18q102 0 184 -27.5t135 -99.5h3q47 55 123.5 91t175.5 36q111 0 191.5 -35.5t132.5 -97t78 -144.5t26 -177 q0 -27 -2.5 -56.5t-6.5 -64.5h-630q-2 -281 280 -281q74 0 148.5 15.5t146.5 46.5l29 -199q-84 -35 -179.5 -51t-189.5 -16q-166 0 -267.5 57t-141.5 149h-3q-47 -88 -140 -147t-232 -59q-141 0 -218 82.5t-77 207.5zM328 299q0 -51 31.5 -85t89.5 -34q49 0 89 21.5 t68.5 55.5t44 78t15.5 91v31q-100 0 -166 -12.5t-104 -34t-53 -50t-15 -61.5zM926 641h374q4 98 -44 152.5t-132 54.5q-82 0 -135 -55.5t-63 -151.5z" />
<glyph unicode="&#xe7;" horiz-adv-x="870" d="M70 475q0 119 31.5 221.5t95 178t161 118.5t230.5 43q59 0 116.5 -9t106.5 -26l-41 -225q-41 16 -90 27.5t-100 11.5q-117 0 -176.5 -86t-59.5 -227q0 -66 12.5 -120t41 -93t73.5 -60.5t111 -21.5q106 0 198 41l35 -219q-59 -23 -135 -35t-152 -12q-106 0 -191 28.5 t-144.5 88t-91 153.5t-31.5 223zM332 -479q74 88 84 162.5t-64 166.5l217 68q80 -111 62.5 -209t-103.5 -188h-196z" />
<glyph unicode="&#xe8;" horiz-adv-x="1052" d="M70 500q0 113 34.5 213t95 171.5t149.5 112.5t204 41q111 0 191.5 -33.5t135 -97t75 -146.5t20.5 -155q0 -47 -2 -76.5t-6 -66.5h-631q-10 -281 280 -279q150 0 295 62l29 -199q-84 -35 -179 -51t-190 -16q-242 0 -371.5 126.5t-129.5 393.5zM233 1368l121 176l348 -256 l-98 -141zM340 637h377h-2q0 100 -45 154.5t-129 54.5q-82 0 -135.5 -55.5t-65.5 -153.5z" />
<glyph unicode="&#xe9;" horiz-adv-x="1052" d="M70 500q0 113 34.5 213t95 171.5t149.5 112.5t204 41q111 0 191.5 -33.5t135 -97t75 -146.5t20.5 -155q0 -47 -2 -76.5t-6 -66.5h-631q-10 -281 280 -279q150 0 295 62l29 -199q-84 -35 -179 -51t-190 -16q-242 0 -371.5 126.5t-129.5 393.5zM340 637h377h-2 q0 100 -45 154.5t-129 54.5q-82 0 -135.5 -55.5t-65.5 -153.5zM387 1288l346 256l121 -176l-371 -221z" />
<glyph unicode="&#xea;" horiz-adv-x="1052" d="M70 500q0 113 34.5 213t95 171.5t149.5 112.5t204 41q111 0 191.5 -33.5t135 -97t75 -146.5t20.5 -155q0 -47 -2 -76.5t-6 -66.5h-631q-10 -281 280 -279q150 0 295 62l29 -199q-84 -35 -179 -51t-190 -16q-242 0 -371.5 126.5t-129.5 393.5zM234 1266l313 278l314 -276 l-103 -121l-213 166l-211 -166zM340 637h377h-2q0 100 -45 154.5t-129 54.5q-82 0 -135.5 -55.5t-65.5 -153.5z" />
<glyph unicode="&#xeb;" horiz-adv-x="1052" d="M70 500q0 113 34.5 213t95 171.5t149.5 112.5t204 41q111 0 191.5 -33.5t135 -97t75 -146.5t20.5 -155q0 -47 -2 -76.5t-6 -66.5h-631q-10 -281 280 -279q150 0 295 62l29 -199q-84 -35 -179 -51t-190 -16q-242 0 -371.5 126.5t-129.5 393.5zM197 1327q0 59 40.5 100 t100.5 41q59 0 100 -41t41 -100t-41 -100t-100 -41t-100 41t-41 100zM340 637h377h-2q0 100 -45 154.5t-129 54.5q-82 0 -135.5 -55.5t-65.5 -153.5zM610 1327q0 59 41 100t101 41q59 0 100 -41t41 -100t-41 -100t-100 -41t-100.5 41t-41.5 100z" />
<glyph unicode="&#xec;" horiz-adv-x="544" d="M0 1368l121 176l348 -256l-98 -141zM141 0v1018h262v-1018h-262z" />
<glyph unicode="&#xed;" horiz-adv-x="544" d="M78 1288l346 256l121 -176l-371 -221zM141 0v1018h262v-1018h-262z" />
<glyph unicode="&#xee;" horiz-adv-x="544" d="M-37 1266l313 278l314 -276l-103 -121l-213 166l-211 -166zM141 0v1018h262v-1018h-262z" />
<glyph unicode="&#xef;" horiz-adv-x="544" d="M-73 1327q0 59 40.5 100t100.5 41q59 0 100 -41t41 -100t-41 -100t-100 -41t-100 41t-41 100zM141 0v1018h262v-1018h-262zM340 1327q0 59 41 100t101 41q59 0 100 -41t41 -100t-41 -100t-100 -41t-100.5 41t-41.5 100z" />
<glyph unicode="&#xf0;" horiz-adv-x="1136" d="M68 492q0 123 36.5 222t103 170.5t157 110.5t196.5 39q47 0 92 -14t70 -49q-14 25 -27.5 46t-23.5 38q-20 35 -47 69.5t-62 71.5l-188 -84l-107 123l172 76q-35 29 -73.5 58.5t-81.5 57.5l256 109q74 -55 141 -123l182 80l105 -123l-176 -76q129 -160 198.5 -343 t69.5 -382q0 -150 -40 -260t-109.5 -184t-162 -109.5t-198.5 -35.5t-194.5 30.5t-153 94t-100 159.5t-35.5 228zM340 512q0 -152 61.5 -230.5t169.5 -78.5q94 0 155.5 78.5t61.5 250.5q0 131 -54 208t-169 77q-45 0 -86 -18.5t-71.5 -55t-49 -94t-18.5 -137.5z" />
<glyph unicode="&#xf1;" horiz-adv-x="1169" d="M141 0v1018h248q0 -35 -3 -88t-11 -94h2q47 90 134 146t212 56q86 0 144.5 -25.5t93 -69.5t50 -102.5t15.5 -125.5v-715h-260v651q0 78 -26.5 123t-98.5 45q-49 0 -93 -26.5t-76 -70.5t-50.5 -103.5t-18.5 -126.5v-492h-262zM220 1290q90 182 249 183q51 0 85 -17.5 t61.5 -36t51.5 -35t52 -16.5q66 0 115 92l125 -96q-92 -182 -250 -182q-51 0 -86 16t-61.5 35.5t-51 36t-53.5 16.5q-63 0 -113 -92z" />
<glyph unicode="&#xf2;" horiz-adv-x="1132" d="M68 492q0 119 37.5 219t106.5 172.5t164 113.5t212 41q217 0 346 -124t129 -386q0 -121 -38 -221t-107.5 -173t-165 -113.5t-209.5 -40.5q-109 0 -197 28.5t-149.5 91t-95 159.5t-33.5 233zM262 1368l121 176l348 -256l-98 -141zM338 518q0 -315 227 -315q98 0 163 77.5 t65 233.5q0 147 -53.5 225t-170.5 78q-43 0 -85 -17.5t-74.5 -54t-52 -93t-19.5 -134.5z" />
<glyph unicode="&#xf3;" horiz-adv-x="1132" d="M68 492q0 119 37.5 219t106.5 172.5t164 113.5t212 41q217 0 346 -124t129 -386q0 -121 -38 -221t-107.5 -173t-165 -113.5t-209.5 -40.5q-109 0 -197 28.5t-149.5 91t-95 159.5t-33.5 233zM338 518q0 -315 227 -315q98 0 163 77.5t65 233.5q0 147 -53.5 225t-170.5 78 q-43 0 -85 -17.5t-74.5 -54t-52 -93t-19.5 -134.5zM412 1288l346 256l121 -176l-371 -221z" />
<glyph unicode="&#xf4;" horiz-adv-x="1132" d="M68 492q0 119 37.5 219t106.5 172.5t164 113.5t212 41q217 0 346 -124t129 -386q0 -121 -38 -221t-107.5 -173t-165 -113.5t-209.5 -40.5q-109 0 -197 28.5t-149.5 91t-95 159.5t-33.5 233zM264 1266l313 278l314 -276l-103 -121l-213 166l-211 -166zM338 518 q0 -315 227 -315q98 0 163 77.5t65 233.5q0 147 -53.5 225t-170.5 78q-43 0 -85 -17.5t-74.5 -54t-52 -93t-19.5 -134.5z" />
<glyph unicode="&#xf5;" horiz-adv-x="1132" d="M68 492q0 119 37.5 219t106.5 172.5t164 113.5t212 41q217 0 346 -124t129 -386q0 -121 -38 -221t-107.5 -173t-165 -113.5t-209.5 -40.5q-109 0 -197 28.5t-149.5 91t-95 159.5t-33.5 233zM213 1290q90 182 249 183q51 0 85 -17.5t61.5 -36t51.5 -35t52 -16.5 q66 0 115 92l125 -96q-92 -182 -250 -182q-51 0 -86 16t-61.5 35.5t-51 36t-53.5 16.5q-63 0 -113 -92zM338 518q0 -315 227 -315q98 0 163 77.5t65 233.5q0 147 -53.5 225t-170.5 78q-43 0 -85 -17.5t-74.5 -54t-52 -93t-19.5 -134.5z" />
<glyph unicode="&#xf6;" horiz-adv-x="1132" d="M68 492q0 119 37.5 219t106.5 172.5t164 113.5t212 41q217 0 346 -124t129 -386q0 -121 -38 -221t-107.5 -173t-165 -113.5t-209.5 -40.5q-109 0 -197 28.5t-149.5 91t-95 159.5t-33.5 233zM230 1327q0 59 40.5 100t100.5 41q59 0 100 -41t41 -100t-41 -100t-100 -41 t-100 41t-41 100zM338 518q0 -315 227 -315q98 0 163 77.5t65 233.5q0 147 -53.5 225t-170.5 78q-43 0 -85 -17.5t-74.5 -54t-52 -93t-19.5 -134.5zM643 1327q0 59 41 100t101 41q59 0 100 -41t41 -100t-41 -100t-100 -41t-100.5 41t-41.5 100z" />
<glyph unicode="&#xf7;" d="M80 500v219h967v-219h-967zM401 199q0 66 47.5 112.5t112.5 46.5q66 0 113 -46.5t47 -112.5t-47 -113t-113 -47t-113 47t-47 113zM401 1020q0 66 47.5 113t112.5 47q66 0 113 -47t47 -113t-47 -113t-113 -47t-113 47t-47 113z" />
<glyph unicode="&#xf8;" horiz-adv-x="1136" d="M68 492q0 119 36.5 219t105.5 172.5t165 113.5t215 41q76 0 139 -12l94 180l144 -67l-93 -178q90 -59 142.5 -165t52.5 -268q0 -119 -38 -220t-106.5 -174t-164.5 -113.5t-213 -40.5q-92 0 -166 20l-100 -201l-144 66l103 203q-88 63 -130 171.5t-42 252.5zM317 520 q0 -139 60 -211l241 520q-10 2 -23 3.5t-24 1.5q-47 0 -93 -17.5t-82 -54.5t-57.5 -96.5t-21.5 -145.5zM496 199q27 -10 71 -11q113 0 182.5 82t69.5 244q0 156 -76 219z" />
<glyph unicode="&#xf9;" horiz-adv-x="1167" d="M141 303v715h260v-651q0 -78 27 -123t100 -45q49 0 93.5 26.5t75 70.5t49 103.5t18.5 126.5v492h262v-1018h-246q0 35 2 88t11 94h-2q-47 -90 -133.5 -146t-213.5 -56q-86 0 -144 25.5t-93 69.5t-50.5 102.5t-15.5 125.5zM260 1368l121 176l348 -256l-98 -141z" />
<glyph unicode="&#xfa;" horiz-adv-x="1167" d="M141 303v715h260v-651q0 -78 27 -123t100 -45q49 0 93.5 26.5t75 70.5t49 103.5t18.5 126.5v492h262v-1018h-246q0 35 2 88t11 94h-2q-47 -90 -133.5 -146t-213.5 -56q-86 0 -144 25.5t-93 69.5t-50.5 102.5t-15.5 125.5zM444 1288l346 256l121 -176l-371 -221z" />
<glyph unicode="&#xfb;" horiz-adv-x="1167" d="M141 303v715h260v-651q0 -78 27 -123t100 -45q49 0 93.5 26.5t75 70.5t49 103.5t18.5 126.5v492h262v-1018h-246q0 35 2 88t11 94h-2q-47 -90 -133.5 -146t-213.5 -56q-86 0 -144 25.5t-93 69.5t-50.5 102.5t-15.5 125.5zM271 1266l313 278l314 -276l-103 -121l-213 166 l-211 -166z" />
<glyph unicode="&#xfc;" horiz-adv-x="1167" d="M141 303v715h260v-651q0 -78 27 -123t100 -45q49 0 93.5 26.5t75 70.5t49 103.5t18.5 126.5v492h262v-1018h-246q0 35 2 88t11 94h-2q-47 -90 -133.5 -146t-213.5 -56q-86 0 -144 25.5t-93 69.5t-50.5 102.5t-15.5 125.5zM236 1327q0 59 40.5 100t100.5 41q59 0 100 -41 t41 -100t-41 -100t-100 -41t-100 41t-41 100zM649 1327q0 59 41 100t101 41q59 0 100 -41t41 -100t-41 -100t-100 -41t-100.5 41t-41.5 100z" />
<glyph unicode="&#xfd;" horiz-adv-x="1028" d="M-37 -496l31 226q29 -10 62.5 -15.5t66.5 -5.5t64.5 9.5t62.5 32t57.5 61t48.5 98.5l31 90l-377 1018h293l137 -389q23 -66 43.5 -138.5t36.5 -142.5h2q8 35 20.5 77t26 85t26.5 85t26 77l120 346h281l-404 -1075q-49 -133 -102 -220.5t-114.5 -138.5t-134 -72.5 t-161.5 -21.5q-33 0 -73.5 4t-69.5 10zM381 1288l346 256l121 -176l-371 -221z" />
<glyph unicode="&#xfe;" horiz-adv-x="1144" d="M141 -494v1989h262v-418q0 -47 -2 -104.5t-8 -104.5h4q39 76 114 123t187 47q182 0 277.5 -124t95.5 -351q0 -133 -35 -239.5t-102.5 -182t-167.5 -115.5t-231 -40q-37 0 -68 2t-64 6v-488h-262zM403 207q61 -18 138 -19q55 0 102 18.5t81 60.5t53.5 108t19.5 160 q0 289 -174 288q-51 0 -92.5 -27.5t-69 -73.5t-43 -106.5t-15.5 -126.5v-282z" />
<glyph unicode="&#xff;" horiz-adv-x="1028" d="M-37 -496l31 226q29 -10 62.5 -15.5t66.5 -5.5t64.5 9.5t62.5 32t57.5 61t48.5 98.5l31 90l-377 1018h293l137 -389q23 -66 43.5 -138.5t36.5 -142.5h2q8 35 20.5 77t26 85t26.5 85t26 77l120 346h281l-404 -1075q-49 -133 -102 -220.5t-114.5 -138.5t-134 -72.5 t-161.5 -21.5q-33 0 -73.5 4t-69.5 10zM177 1327q0 59 40.5 100t100.5 41q59 0 100 -41t41 -100t-41 -100t-100 -41t-100 41t-41 100zM590 1327q0 59 41 100t101 41q59 0 100 -41t41 -100t-41 -100t-100 -41t-100.5 41t-41.5 100z" />
<glyph unicode="&#x152;" horiz-adv-x="1761" d="M68 674q0 172 53 307t144 229.5t212 144.5t256 50q59 0 112.5 -6t102.5 -17h699v-223h-484v-340h459v-217h-459v-375h484v-227h-727q-109 -23 -224 -23q-158 0 -276.5 48.5t-196.5 139.5t-116.5 220t-38.5 289zM352 702q0 -111 21.5 -199.5t66.5 -151t114 -97.5t161 -35 q43 0 91 8.5t91 24.5v887q-41 12 -84 19t-92 7q-72 0 -138.5 -28.5t-117.5 -86t-82 -144.5t-31 -204z" />
<glyph unicode="&#x153;" horiz-adv-x="1761" d="M68 492q0 119 37.5 220t105.5 172.5t164 112.5t213 41q98 0 190 -35.5t150 -113.5q55 70 135 110.5t190 40.5q113 0 194 -35.5t133 -97t76.5 -144.5t24.5 -177q0 -27 -2 -56.5t-6 -64.5h-629q-2 -281 279 -281q74 0 148.5 15.5t146.5 46.5l29 -199q-84 -35 -178.5 -51 t-190.5 -16q-139 0 -230.5 44t-148.5 121q-55 -74 -146 -119.5t-210 -45.5q-109 0 -196 28.5t-149.5 91t-96 159.5t-33.5 233zM338 518q0 -315 227 -315q98 0 163 77.5t65 233.5q0 147 -53.5 225t-170.5 78q-43 0 -85 -17.5t-74.5 -54t-52 -93t-19.5 -134.5zM1047 641h374 q4 98 -43 152.5t-133 54.5q-80 0 -134 -55.5t-64 -151.5z" />
<glyph unicode="&#x178;" horiz-adv-x="1148" d="M6 1382h291l182 -397q29 -61 51.5 -118.5t42.5 -110.5h5q23 59 51 124.5t59 131.5l174 370h283l-440 -893v-489h-267v487zM223 1608q0 57 40 96t97 39t97.5 -39t40.5 -96t-40 -96t-98 -39q-57 0 -97 38.5t-40 96.5zM666 1608q0 57 38.5 96t96.5 39q57 0 97 -39t40 -96 t-40 -96t-97 -39t-96 38.5t-39 96.5z" />
<glyph unicode="&#x2c6;" horiz-adv-x="872" d="M121 1266l313 278l314 -276l-103 -121l-213 166l-211 -166z" />
<glyph unicode="&#x2dc;" horiz-adv-x="944" d="M109 1290q90 182 249 183q51 0 85 -17.5t61.5 -36t51.5 -35t52 -16.5q66 0 115 92l125 -96q-92 -182 -250 -182q-51 0 -86 16t-61.5 35.5t-51 36t-53.5 16.5q-63 0 -113 -92z" />
<glyph unicode="&#x2000;" horiz-adv-x="956" />
<glyph unicode="&#x2001;" horiz-adv-x="1913" />
<glyph unicode="&#x2002;" horiz-adv-x="956" />
<glyph unicode="&#x2003;" horiz-adv-x="1913" />
<glyph unicode="&#x2004;" horiz-adv-x="637" />
<glyph unicode="&#x2005;" horiz-adv-x="478" />
<glyph unicode="&#x2006;" horiz-adv-x="318" />
<glyph unicode="&#x2007;" horiz-adv-x="318" />
<glyph unicode="&#x2008;" horiz-adv-x="239" />
<glyph unicode="&#x2009;" horiz-adv-x="382" />
<glyph unicode="&#x200a;" horiz-adv-x="106" />
<glyph unicode="&#x2010;" horiz-adv-x="684" d="M90 463v211h504v-211h-504z" />
<glyph unicode="&#x2011;" horiz-adv-x="684" d="M90 463v211h504v-211h-504z" />
<glyph unicode="&#x2012;" horiz-adv-x="684" d="M90 463v211h504v-211h-504z" />
<glyph unicode="&#x2013;" d="M0 496v227h1126v-227h-1126z" />
<glyph unicode="&#x2014;" horiz-adv-x="2048" d="M227 496v227h1594v-227h-1594z" />
<glyph unicode="&#x2018;" horiz-adv-x="546" d="M99 1093.5q1 92.5 61.5 211t204.5 243.5l106 -96q-104 -113 -117.5 -185.5t33.5 -129.5q29 -35 34 -77t-11.5 -81t-53.5 -64.5t-90 -25.5q-72 0 -120 56t-47 148.5z" />
<glyph unicode="&#x2019;" horiz-adv-x="546" d="M74 967q104 113 117.5 185.5t-35.5 129.5q-29 33 -33 76t12.5 82t53.5 64.5t90 25.5q72 0 118.5 -56.5t46.5 -148.5t-60 -211t-204 -244z" />
<glyph unicode="&#x201a;" horiz-adv-x="546" d="M74 -258q104 113 117.5 184.5t-35.5 128.5q-29 35 -33 78t12.5 82t53.5 64.5t90 25.5q72 0 118.5 -56t46.5 -149q0 -92 -60 -210.5t-204 -243.5z" />
<glyph unicode="&#x201c;" horiz-adv-x="993" d="M99 1093.5q1 92.5 61.5 211t204.5 243.5l106 -96q-104 -113 -117.5 -185.5t33.5 -129.5q29 -35 34 -77t-11.5 -81t-53.5 -64.5t-90 -25.5q-72 0 -120 56t-47 148.5zM547 1094q0 92 60.5 210.5t203.5 243.5l109 -96q-104 -113 -118 -185.5t34 -129.5q29 -35 32.5 -77 t-12.5 -81t-52 -64.5t-89 -25.5q-74 0 -121 56t-47 149z" />
<glyph unicode="&#x201d;" horiz-adv-x="993" d="M74 967q104 113 117.5 185.5t-35.5 129.5q-29 33 -33 76t12.5 82t53.5 64.5t90 25.5q72 0 118.5 -56.5t46.5 -148.5t-60 -211t-204 -244zM520 967q104 113 117.5 185.5t-33.5 129.5q-29 33 -33 76t12.5 82t52.5 64.5t89 25.5q74 0 121 -56.5t47 -148.5t-60.5 -211 t-203.5 -244z" />
<glyph unicode="&#x201e;" horiz-adv-x="993" d="M74 -258q104 113 117.5 184.5t-35.5 128.5q-29 35 -33 78t12.5 82t53.5 64.5t90 25.5q72 0 118.5 -56t46.5 -149q0 -92 -60 -210.5t-204 -243.5zM520 -258q104 113 117.5 184.5t-33.5 128.5q-29 35 -33 78t12.5 82t52.5 64.5t89 25.5q74 0 121 -56t47 -149 q0 -92 -60.5 -210.5t-203.5 -243.5z" />
<glyph unicode="&#x2022;" horiz-adv-x="866" d="M129 608q0 61 23.5 116.5t64.5 97.5t96.5 65.5t118.5 23.5t118.5 -23.5t96.5 -65.5t65.5 -97.5t24.5 -116.5t-24.5 -116.5t-65.5 -97.5t-96 -65.5t-119 -23.5q-63 0 -118.5 23.5t-96.5 65.5t-64.5 97.5t-23.5 116.5z" />
<glyph unicode="&#x2026;" horiz-adv-x="1480" d="M96 137q0 66 47 113t113 47t114 -47t48 -113t-48 -113t-114 -47t-113 47.5t-47 112.5zM575 137q0 66 47.5 113t112.5 47q66 0 113 -47t47 -113t-47 -113t-113 -47t-113 47.5t-47 112.5zM1053 137q0 66 47 113t112 47q66 0 113 -47t47 -113t-47 -113t-113 -47t-112.5 47.5 t-46.5 112.5z" />
<glyph unicode="&#x202f;" horiz-adv-x="382" />
<glyph unicode="&#x2039;" horiz-adv-x="638" d="M84 598l235 399l199 -96l-182 -301l186 -297l-207 -98z" />
<glyph unicode="&#x203a;" horiz-adv-x="638" d="M119 899l207 98l231 -393l-238 -399l-198 96l184 301z" />
<glyph unicode="&#x205f;" horiz-adv-x="478" />
<glyph unicode="&#x20ac;" horiz-adv-x="1212" d="M25 451v157h147v39q0 31 1 59.5t3 57.5h-151v158h170q51 244 210.5 363.5t395.5 119.5q98 0 188 -21.5t150 -52.5l-62 -211q-51 29 -124.5 48.5t-153.5 19.5q-121 0 -203 -63.5t-111 -202.5h398v-158h-422q0 -16 -1 -34.5t-1 -37.5v-43t2 -41h422v-157h-402 q23 -123 100.5 -189.5t225.5 -66.5q63 0 140 22.5t140 63.5l70 -199q-74 -47 -171 -76t-216 -29q-514 0 -586 474h-159z" />
<glyph unicode="&#x2122;" horiz-adv-x="1411" d="M59 1225v157h459v-157h-133v-418h-186v418h-140zM535 807l92 575h223l70 -252l16 -83l14 79l70 256h223l96 -575h-194l-37 248l-10 96l-19 -88l-67 -256h-174l-68 262l-16 82l-4 -74l-39 -270h-176z" />
<glyph unicode="&#x25fc;" horiz-adv-x="1013" d="M0 0v1014h1014v-1014h-1014z" />
</font>
</defs>
</svg>
